<mxfile host="app.diagrams.net" modified="2023-11-23T06:15:29.116Z" agent="Mozilla/5.0 (Windows NT 10.0; Win64; x64) AppleWebKit/537.36 (KHTML, like Gecko) Chrome/119.0.0.0 Safari/537.36" etag="O_YI3IeVL5EIPE4cQC8M" version="22.1.3" type="device" pages="3">
  <diagram id="C5RBs43oDa-KdzZeNtuy" name="Page-1">
    <mxGraphModel dx="7453" dy="3240" grid="1" gridSize="10" guides="1" tooltips="1" connect="1" arrows="1" fold="1" page="1" pageScale="1" pageWidth="827" pageHeight="1169" math="0" shadow="0">
      <root>
        <mxCell id="WIyWlLk6GJQsqaUBKTNV-0" />
        <mxCell id="WIyWlLk6GJQsqaUBKTNV-1" parent="WIyWlLk6GJQsqaUBKTNV-0" />
        <mxCell id="ZgeuHS7HHPoTLKe4cGhj-92" value="" style="edgeStyle=orthogonalEdgeStyle;rounded=0;orthogonalLoop=1;jettySize=auto;html=1;" edge="1" parent="WIyWlLk6GJQsqaUBKTNV-1" source="ZgeuHS7HHPoTLKe4cGhj-93" target="ZgeuHS7HHPoTLKe4cGhj-95">
          <mxGeometry relative="1" as="geometry" />
        </mxCell>
        <mxCell id="ZgeuHS7HHPoTLKe4cGhj-93" value="start" style="ellipse;whiteSpace=wrap;html=1;" vertex="1" parent="WIyWlLk6GJQsqaUBKTNV-1">
          <mxGeometry x="120" y="20" width="120" height="80" as="geometry" />
        </mxCell>
        <mxCell id="ZgeuHS7HHPoTLKe4cGhj-94" value="" style="edgeStyle=orthogonalEdgeStyle;rounded=0;orthogonalLoop=1;jettySize=auto;html=1;" edge="1" parent="WIyWlLk6GJQsqaUBKTNV-1" source="ZgeuHS7HHPoTLKe4cGhj-95" target="ZgeuHS7HHPoTLKe4cGhj-100">
          <mxGeometry relative="1" as="geometry" />
        </mxCell>
        <mxCell id="ZgeuHS7HHPoTLKe4cGhj-95" value="input n" style="shape=parallelogram;perimeter=parallelogramPerimeter;whiteSpace=wrap;html=1;fixedSize=1;" vertex="1" parent="WIyWlLk6GJQsqaUBKTNV-1">
          <mxGeometry x="120" y="190" width="120" height="60" as="geometry" />
        </mxCell>
        <mxCell id="ZgeuHS7HHPoTLKe4cGhj-96" value="" style="edgeStyle=orthogonalEdgeStyle;rounded=0;orthogonalLoop=1;jettySize=auto;html=1;" edge="1" parent="WIyWlLk6GJQsqaUBKTNV-1" source="ZgeuHS7HHPoTLKe4cGhj-97" target="ZgeuHS7HHPoTLKe4cGhj-102">
          <mxGeometry relative="1" as="geometry" />
        </mxCell>
        <mxCell id="ZgeuHS7HHPoTLKe4cGhj-97" value="i&amp;lt;n" style="rhombus;whiteSpace=wrap;html=1;" vertex="1" parent="WIyWlLk6GJQsqaUBKTNV-1">
          <mxGeometry x="140" y="460" width="80" height="80" as="geometry" />
        </mxCell>
        <mxCell id="ZgeuHS7HHPoTLKe4cGhj-98" value="" style="edgeStyle=orthogonalEdgeStyle;rounded=0;orthogonalLoop=1;jettySize=auto;html=1;" edge="1" parent="WIyWlLk6GJQsqaUBKTNV-1" source="ZgeuHS7HHPoTLKe4cGhj-100" target="ZgeuHS7HHPoTLKe4cGhj-97">
          <mxGeometry relative="1" as="geometry" />
        </mxCell>
        <mxCell id="ZgeuHS7HHPoTLKe4cGhj-99" style="edgeStyle=orthogonalEdgeStyle;rounded=0;orthogonalLoop=1;jettySize=auto;html=1;entryX=0;entryY=0.5;entryDx=0;entryDy=0;" edge="1" parent="WIyWlLk6GJQsqaUBKTNV-1" source="ZgeuHS7HHPoTLKe4cGhj-100" target="ZgeuHS7HHPoTLKe4cGhj-108">
          <mxGeometry relative="1" as="geometry">
            <Array as="points">
              <mxPoint x="50" y="360" />
              <mxPoint x="50" y="900" />
            </Array>
          </mxGeometry>
        </mxCell>
        <mxCell id="ZgeuHS7HHPoTLKe4cGhj-100" value="i=0" style="whiteSpace=wrap;html=1;" vertex="1" parent="WIyWlLk6GJQsqaUBKTNV-1">
          <mxGeometry x="120" y="330" width="120" height="60" as="geometry" />
        </mxCell>
        <mxCell id="ZgeuHS7HHPoTLKe4cGhj-101" value="" style="edgeStyle=orthogonalEdgeStyle;rounded=0;orthogonalLoop=1;jettySize=auto;html=1;" edge="1" parent="WIyWlLk6GJQsqaUBKTNV-1" source="ZgeuHS7HHPoTLKe4cGhj-102" target="ZgeuHS7HHPoTLKe4cGhj-104">
          <mxGeometry relative="1" as="geometry" />
        </mxCell>
        <mxCell id="ZgeuHS7HHPoTLKe4cGhj-102" value="input a[i]" style="shape=parallelogram;perimeter=parallelogramPerimeter;whiteSpace=wrap;html=1;fixedSize=1;" vertex="1" parent="WIyWlLk6GJQsqaUBKTNV-1">
          <mxGeometry x="120" y="600" width="120" height="60" as="geometry" />
        </mxCell>
        <mxCell id="ZgeuHS7HHPoTLKe4cGhj-103" style="edgeStyle=orthogonalEdgeStyle;rounded=0;orthogonalLoop=1;jettySize=auto;html=1;entryX=1;entryY=0.5;entryDx=0;entryDy=0;" edge="1" parent="WIyWlLk6GJQsqaUBKTNV-1" source="ZgeuHS7HHPoTLKe4cGhj-104" target="ZgeuHS7HHPoTLKe4cGhj-100">
          <mxGeometry relative="1" as="geometry">
            <Array as="points">
              <mxPoint x="370" y="730" />
              <mxPoint x="370" y="360" />
            </Array>
          </mxGeometry>
        </mxCell>
        <mxCell id="ZgeuHS7HHPoTLKe4cGhj-104" value="i++" style="rounded=0;whiteSpace=wrap;html=1;" vertex="1" parent="WIyWlLk6GJQsqaUBKTNV-1">
          <mxGeometry x="120" y="700" width="120" height="60" as="geometry" />
        </mxCell>
        <mxCell id="ZgeuHS7HHPoTLKe4cGhj-105" value="true" style="text;html=1;strokeColor=none;fillColor=none;align=center;verticalAlign=middle;whiteSpace=wrap;rounded=0;" vertex="1" parent="WIyWlLk6GJQsqaUBKTNV-1">
          <mxGeometry x="120" y="410" width="60" height="30" as="geometry" />
        </mxCell>
        <mxCell id="ZgeuHS7HHPoTLKe4cGhj-106" value="" style="edgeStyle=orthogonalEdgeStyle;rounded=0;orthogonalLoop=1;jettySize=auto;html=1;" edge="1" parent="WIyWlLk6GJQsqaUBKTNV-1" source="ZgeuHS7HHPoTLKe4cGhj-108" target="ZgeuHS7HHPoTLKe4cGhj-111">
          <mxGeometry relative="1" as="geometry" />
        </mxCell>
        <mxCell id="ZgeuHS7HHPoTLKe4cGhj-107" value="" style="edgeStyle=orthogonalEdgeStyle;rounded=0;orthogonalLoop=1;jettySize=auto;html=1;" edge="1" parent="WIyWlLk6GJQsqaUBKTNV-1" source="ZgeuHS7HHPoTLKe4cGhj-108" target="ZgeuHS7HHPoTLKe4cGhj-136">
          <mxGeometry relative="1" as="geometry" />
        </mxCell>
        <mxCell id="ZgeuHS7HHPoTLKe4cGhj-108" value="case 1" style="rhombus;whiteSpace=wrap;html=1;" vertex="1" parent="WIyWlLk6GJQsqaUBKTNV-1">
          <mxGeometry x="140" y="860" width="80" height="80" as="geometry" />
        </mxCell>
        <mxCell id="ZgeuHS7HHPoTLKe4cGhj-109" value="false" style="text;html=1;strokeColor=none;fillColor=none;align=center;verticalAlign=middle;whiteSpace=wrap;rounded=0;" vertex="1" parent="WIyWlLk6GJQsqaUBKTNV-1">
          <mxGeometry x="40" y="330" width="60" height="30" as="geometry" />
        </mxCell>
        <mxCell id="ZgeuHS7HHPoTLKe4cGhj-110" value="" style="edgeStyle=orthogonalEdgeStyle;rounded=0;orthogonalLoop=1;jettySize=auto;html=1;" edge="1" parent="WIyWlLk6GJQsqaUBKTNV-1" source="ZgeuHS7HHPoTLKe4cGhj-111" target="ZgeuHS7HHPoTLKe4cGhj-114">
          <mxGeometry relative="1" as="geometry" />
        </mxCell>
        <mxCell id="ZgeuHS7HHPoTLKe4cGhj-111" value="i=0" style="rounded=0;whiteSpace=wrap;html=1;" vertex="1" parent="WIyWlLk6GJQsqaUBKTNV-1">
          <mxGeometry x="260" y="870" width="120" height="60" as="geometry" />
        </mxCell>
        <mxCell id="ZgeuHS7HHPoTLKe4cGhj-112" value="" style="edgeStyle=orthogonalEdgeStyle;rounded=0;orthogonalLoop=1;jettySize=auto;html=1;" edge="1" parent="WIyWlLk6GJQsqaUBKTNV-1" source="ZgeuHS7HHPoTLKe4cGhj-114">
          <mxGeometry relative="1" as="geometry">
            <mxPoint x="560" y="900" as="targetPoint" />
          </mxGeometry>
        </mxCell>
        <mxCell id="ZgeuHS7HHPoTLKe4cGhj-113" style="edgeStyle=orthogonalEdgeStyle;rounded=0;orthogonalLoop=1;jettySize=auto;html=1;" edge="1" parent="WIyWlLk6GJQsqaUBKTNV-1" source="ZgeuHS7HHPoTLKe4cGhj-114">
          <mxGeometry relative="1" as="geometry">
            <mxPoint x="1560" y="1070" as="targetPoint" />
            <Array as="points">
              <mxPoint x="475" y="1020" />
              <mxPoint x="476" y="1100" />
            </Array>
          </mxGeometry>
        </mxCell>
        <mxCell id="ZgeuHS7HHPoTLKe4cGhj-114" value="i&amp;lt;n" style="rhombus;whiteSpace=wrap;html=1;" vertex="1" parent="WIyWlLk6GJQsqaUBKTNV-1">
          <mxGeometry x="435" y="860" width="80" height="80" as="geometry" />
        </mxCell>
        <mxCell id="ZgeuHS7HHPoTLKe4cGhj-115" value="" style="edgeStyle=orthogonalEdgeStyle;rounded=0;orthogonalLoop=1;jettySize=auto;html=1;" edge="1" parent="WIyWlLk6GJQsqaUBKTNV-1" source="ZgeuHS7HHPoTLKe4cGhj-116" target="ZgeuHS7HHPoTLKe4cGhj-119">
          <mxGeometry relative="1" as="geometry" />
        </mxCell>
        <mxCell id="ZgeuHS7HHPoTLKe4cGhj-116" value="j = i-1&lt;br&gt;temp = a[i]" style="whiteSpace=wrap;html=1;rounded=0;" vertex="1" parent="WIyWlLk6GJQsqaUBKTNV-1">
          <mxGeometry x="560" y="870" width="120" height="60" as="geometry" />
        </mxCell>
        <mxCell id="ZgeuHS7HHPoTLKe4cGhj-117" value="" style="edgeStyle=orthogonalEdgeStyle;rounded=0;orthogonalLoop=1;jettySize=auto;html=1;" edge="1" parent="WIyWlLk6GJQsqaUBKTNV-1" source="ZgeuHS7HHPoTLKe4cGhj-119" target="ZgeuHS7HHPoTLKe4cGhj-121">
          <mxGeometry relative="1" as="geometry" />
        </mxCell>
        <mxCell id="ZgeuHS7HHPoTLKe4cGhj-118" style="edgeStyle=orthogonalEdgeStyle;rounded=0;orthogonalLoop=1;jettySize=auto;html=1;" edge="1" parent="WIyWlLk6GJQsqaUBKTNV-1" source="ZgeuHS7HHPoTLKe4cGhj-119">
          <mxGeometry relative="1" as="geometry">
            <mxPoint x="805" y="730" as="targetPoint" />
          </mxGeometry>
        </mxCell>
        <mxCell id="ZgeuHS7HHPoTLKe4cGhj-119" value="j &amp;gt;=0 &amp;amp;&amp;amp;a[j]&amp;lt; temp" style="rhombus;whiteSpace=wrap;html=1;" vertex="1" parent="WIyWlLk6GJQsqaUBKTNV-1">
          <mxGeometry x="740" y="860" width="130" height="80" as="geometry" />
        </mxCell>
        <mxCell id="ZgeuHS7HHPoTLKe4cGhj-120" value="" style="edgeStyle=orthogonalEdgeStyle;rounded=0;orthogonalLoop=1;jettySize=auto;html=1;" edge="1" parent="WIyWlLk6GJQsqaUBKTNV-1" source="ZgeuHS7HHPoTLKe4cGhj-121" target="ZgeuHS7HHPoTLKe4cGhj-123">
          <mxGeometry relative="1" as="geometry" />
        </mxCell>
        <mxCell id="ZgeuHS7HHPoTLKe4cGhj-121" value="a[j+1] = a[j]&lt;br&gt;j =j-1&lt;br&gt;a[j+1] = temp" style="rounded=0;whiteSpace=wrap;html=1;" vertex="1" parent="WIyWlLk6GJQsqaUBKTNV-1">
          <mxGeometry x="910" y="870" width="120" height="60" as="geometry" />
        </mxCell>
        <mxCell id="ZgeuHS7HHPoTLKe4cGhj-122" style="edgeStyle=orthogonalEdgeStyle;rounded=0;orthogonalLoop=1;jettySize=auto;html=1;entryX=0.5;entryY=0;entryDx=0;entryDy=0;" edge="1" parent="WIyWlLk6GJQsqaUBKTNV-1" source="ZgeuHS7HHPoTLKe4cGhj-123" target="ZgeuHS7HHPoTLKe4cGhj-114">
          <mxGeometry relative="1" as="geometry">
            <Array as="points">
              <mxPoint x="1130" y="730" />
              <mxPoint x="475" y="730" />
            </Array>
          </mxGeometry>
        </mxCell>
        <mxCell id="ZgeuHS7HHPoTLKe4cGhj-123" value="i++" style="rounded=0;whiteSpace=wrap;html=1;" vertex="1" parent="WIyWlLk6GJQsqaUBKTNV-1">
          <mxGeometry x="1070" y="870" width="120" height="60" as="geometry" />
        </mxCell>
        <mxCell id="ZgeuHS7HHPoTLKe4cGhj-124" value="true" style="text;html=1;strokeColor=none;fillColor=none;align=center;verticalAlign=middle;whiteSpace=wrap;rounded=0;" vertex="1" parent="WIyWlLk6GJQsqaUBKTNV-1">
          <mxGeometry x="850" y="870" width="60" height="30" as="geometry" />
        </mxCell>
        <mxCell id="ZgeuHS7HHPoTLKe4cGhj-125" value="true" style="text;html=1;strokeColor=none;fillColor=none;align=center;verticalAlign=middle;whiteSpace=wrap;rounded=0;" vertex="1" parent="WIyWlLk6GJQsqaUBKTNV-1">
          <mxGeometry x="500" y="860" width="60" height="30" as="geometry" />
        </mxCell>
        <mxCell id="ZgeuHS7HHPoTLKe4cGhj-126" value="false" style="text;html=1;strokeColor=none;fillColor=none;align=center;verticalAlign=middle;whiteSpace=wrap;rounded=0;" vertex="1" parent="WIyWlLk6GJQsqaUBKTNV-1">
          <mxGeometry x="760" y="820" width="60" height="30" as="geometry" />
        </mxCell>
        <mxCell id="ZgeuHS7HHPoTLKe4cGhj-127" value="false" style="text;html=1;strokeColor=none;fillColor=none;align=center;verticalAlign=middle;whiteSpace=wrap;rounded=0;" vertex="1" parent="WIyWlLk6GJQsqaUBKTNV-1">
          <mxGeometry x="460" y="980" width="60" height="30" as="geometry" />
        </mxCell>
        <mxCell id="ZgeuHS7HHPoTLKe4cGhj-128" value="" style="edgeStyle=orthogonalEdgeStyle;rounded=0;orthogonalLoop=1;jettySize=auto;html=1;" edge="1" parent="WIyWlLk6GJQsqaUBKTNV-1" source="ZgeuHS7HHPoTLKe4cGhj-129" target="ZgeuHS7HHPoTLKe4cGhj-132">
          <mxGeometry relative="1" as="geometry" />
        </mxCell>
        <mxCell id="ZgeuHS7HHPoTLKe4cGhj-129" value="i=0" style="rounded=0;whiteSpace=wrap;html=1;" vertex="1" parent="WIyWlLk6GJQsqaUBKTNV-1">
          <mxGeometry x="260" y="1200" width="120" height="60" as="geometry" />
        </mxCell>
        <mxCell id="ZgeuHS7HHPoTLKe4cGhj-130" value="" style="edgeStyle=orthogonalEdgeStyle;rounded=0;orthogonalLoop=1;jettySize=auto;html=1;" edge="1" parent="WIyWlLk6GJQsqaUBKTNV-1" source="ZgeuHS7HHPoTLKe4cGhj-132">
          <mxGeometry relative="1" as="geometry">
            <mxPoint x="560" y="1230" as="targetPoint" />
          </mxGeometry>
        </mxCell>
        <mxCell id="ZgeuHS7HHPoTLKe4cGhj-131" style="edgeStyle=orthogonalEdgeStyle;rounded=0;orthogonalLoop=1;jettySize=auto;html=1;" edge="1" parent="WIyWlLk6GJQsqaUBKTNV-1" source="ZgeuHS7HHPoTLKe4cGhj-132">
          <mxGeometry relative="1" as="geometry">
            <Array as="points">
              <mxPoint x="475" y="1430" />
              <mxPoint x="1560" y="1430" />
              <mxPoint x="1560" y="660" />
              <mxPoint x="407" y="660" />
            </Array>
            <mxPoint x="50" y="820" as="targetPoint" />
          </mxGeometry>
        </mxCell>
        <mxCell id="ZgeuHS7HHPoTLKe4cGhj-132" value="i&amp;lt;n-1" style="rhombus;whiteSpace=wrap;html=1;" vertex="1" parent="WIyWlLk6GJQsqaUBKTNV-1">
          <mxGeometry x="435" y="1190" width="80" height="80" as="geometry" />
        </mxCell>
        <mxCell id="ZgeuHS7HHPoTLKe4cGhj-133" value="" style="edgeStyle=orthogonalEdgeStyle;rounded=0;orthogonalLoop=1;jettySize=auto;html=1;" edge="1" parent="WIyWlLk6GJQsqaUBKTNV-1">
          <mxGeometry relative="1" as="geometry">
            <mxPoint x="680" y="1230" as="sourcePoint" />
            <mxPoint x="740" y="1230" as="targetPoint" />
          </mxGeometry>
        </mxCell>
        <mxCell id="ZgeuHS7HHPoTLKe4cGhj-134" value="" style="edgeStyle=orthogonalEdgeStyle;rounded=0;orthogonalLoop=1;jettySize=auto;html=1;" edge="1" parent="WIyWlLk6GJQsqaUBKTNV-1" source="ZgeuHS7HHPoTLKe4cGhj-136" target="ZgeuHS7HHPoTLKe4cGhj-129">
          <mxGeometry relative="1" as="geometry" />
        </mxCell>
        <mxCell id="ZgeuHS7HHPoTLKe4cGhj-135" value="" style="edgeStyle=orthogonalEdgeStyle;rounded=0;orthogonalLoop=1;jettySize=auto;html=1;" edge="1" parent="WIyWlLk6GJQsqaUBKTNV-1" source="ZgeuHS7HHPoTLKe4cGhj-136" target="ZgeuHS7HHPoTLKe4cGhj-155">
          <mxGeometry relative="1" as="geometry" />
        </mxCell>
        <mxCell id="ZgeuHS7HHPoTLKe4cGhj-136" value="case 2" style="rhombus;whiteSpace=wrap;html=1;" vertex="1" parent="WIyWlLk6GJQsqaUBKTNV-1">
          <mxGeometry x="140" y="1190" width="80" height="80" as="geometry" />
        </mxCell>
        <mxCell id="ZgeuHS7HHPoTLKe4cGhj-137" value="" style="edgeStyle=orthogonalEdgeStyle;rounded=0;orthogonalLoop=1;jettySize=auto;html=1;" edge="1" parent="WIyWlLk6GJQsqaUBKTNV-1" source="ZgeuHS7HHPoTLKe4cGhj-139" target="ZgeuHS7HHPoTLKe4cGhj-142">
          <mxGeometry relative="1" as="geometry" />
        </mxCell>
        <mxCell id="ZgeuHS7HHPoTLKe4cGhj-138" style="edgeStyle=orthogonalEdgeStyle;rounded=0;orthogonalLoop=1;jettySize=auto;html=1;entryX=0.5;entryY=1;entryDx=0;entryDy=0;" edge="1" parent="WIyWlLk6GJQsqaUBKTNV-1" source="ZgeuHS7HHPoTLKe4cGhj-139" target="ZgeuHS7HHPoTLKe4cGhj-146">
          <mxGeometry relative="1" as="geometry">
            <Array as="points">
              <mxPoint x="780" y="1360" />
              <mxPoint x="1290" y="1360" />
            </Array>
          </mxGeometry>
        </mxCell>
        <mxCell id="ZgeuHS7HHPoTLKe4cGhj-139" value="j&amp;lt; n" style="rhombus;whiteSpace=wrap;html=1;" vertex="1" parent="WIyWlLk6GJQsqaUBKTNV-1">
          <mxGeometry x="740" y="1190" width="80" height="80" as="geometry" />
        </mxCell>
        <mxCell id="ZgeuHS7HHPoTLKe4cGhj-140" value="j = i+1" style="rounded=0;whiteSpace=wrap;html=1;" vertex="1" parent="WIyWlLk6GJQsqaUBKTNV-1">
          <mxGeometry x="560" y="1200" width="120" height="60" as="geometry" />
        </mxCell>
        <mxCell id="ZgeuHS7HHPoTLKe4cGhj-141" style="edgeStyle=orthogonalEdgeStyle;rounded=0;orthogonalLoop=1;jettySize=auto;html=1;" edge="1" parent="WIyWlLk6GJQsqaUBKTNV-1" source="ZgeuHS7HHPoTLKe4cGhj-142">
          <mxGeometry relative="1" as="geometry">
            <mxPoint x="940" y="1140" as="targetPoint" />
          </mxGeometry>
        </mxCell>
        <mxCell id="ZgeuHS7HHPoTLKe4cGhj-142" value="a[i] &amp;gt; a[j]" style="rhombus;whiteSpace=wrap;html=1;" vertex="1" parent="WIyWlLk6GJQsqaUBKTNV-1">
          <mxGeometry x="900" y="1190" width="80" height="80" as="geometry" />
        </mxCell>
        <mxCell id="ZgeuHS7HHPoTLKe4cGhj-143" value="" style="edgeStyle=orthogonalEdgeStyle;rounded=0;orthogonalLoop=1;jettySize=auto;html=1;" edge="1" parent="WIyWlLk6GJQsqaUBKTNV-1" source="ZgeuHS7HHPoTLKe4cGhj-144" target="ZgeuHS7HHPoTLKe4cGhj-146">
          <mxGeometry relative="1" as="geometry">
            <Array as="points">
              <mxPoint x="1200" y="1230" />
              <mxPoint x="1200" y="1230" />
            </Array>
          </mxGeometry>
        </mxCell>
        <mxCell id="ZgeuHS7HHPoTLKe4cGhj-144" value="temp = a[i]&lt;br&gt;a[i] = a[j]&lt;br&gt;a[j] = temp" style="rounded=0;whiteSpace=wrap;html=1;" vertex="1" parent="WIyWlLk6GJQsqaUBKTNV-1">
          <mxGeometry x="1030" y="1200" width="120" height="60" as="geometry" />
        </mxCell>
        <mxCell id="ZgeuHS7HHPoTLKe4cGhj-145" style="edgeStyle=orthogonalEdgeStyle;rounded=0;orthogonalLoop=1;jettySize=auto;html=1;entryX=0.5;entryY=0;entryDx=0;entryDy=0;" edge="1" parent="WIyWlLk6GJQsqaUBKTNV-1" source="ZgeuHS7HHPoTLKe4cGhj-146" target="ZgeuHS7HHPoTLKe4cGhj-132">
          <mxGeometry relative="1" as="geometry">
            <Array as="points">
              <mxPoint x="1290" y="1140" />
              <mxPoint x="475" y="1140" />
            </Array>
          </mxGeometry>
        </mxCell>
        <mxCell id="ZgeuHS7HHPoTLKe4cGhj-146" value="i++&lt;br&gt;j++" style="whiteSpace=wrap;html=1;rounded=0;" vertex="1" parent="WIyWlLk6GJQsqaUBKTNV-1">
          <mxGeometry x="1230" y="1200" width="120" height="60" as="geometry" />
        </mxCell>
        <mxCell id="ZgeuHS7HHPoTLKe4cGhj-147" value="true" style="text;html=1;strokeColor=none;fillColor=none;align=center;verticalAlign=middle;whiteSpace=wrap;rounded=0;" vertex="1" parent="WIyWlLk6GJQsqaUBKTNV-1">
          <mxGeometry x="500" y="1200" width="60" height="30" as="geometry" />
        </mxCell>
        <mxCell id="ZgeuHS7HHPoTLKe4cGhj-148" value="true" style="text;html=1;strokeColor=none;fillColor=none;align=center;verticalAlign=middle;whiteSpace=wrap;rounded=0;" vertex="1" parent="WIyWlLk6GJQsqaUBKTNV-1">
          <mxGeometry x="820" y="1200" width="60" height="30" as="geometry" />
        </mxCell>
        <mxCell id="ZgeuHS7HHPoTLKe4cGhj-149" value="true" style="text;html=1;strokeColor=none;fillColor=none;align=center;verticalAlign=middle;whiteSpace=wrap;rounded=0;" vertex="1" parent="WIyWlLk6GJQsqaUBKTNV-1">
          <mxGeometry x="970" y="1190" width="60" height="30" as="geometry" />
        </mxCell>
        <mxCell id="ZgeuHS7HHPoTLKe4cGhj-150" value="false" style="text;html=1;strokeColor=none;fillColor=none;align=center;verticalAlign=middle;whiteSpace=wrap;rounded=0;" vertex="1" parent="WIyWlLk6GJQsqaUBKTNV-1">
          <mxGeometry x="890" y="1155" width="60" height="30" as="geometry" />
        </mxCell>
        <mxCell id="ZgeuHS7HHPoTLKe4cGhj-151" value="fasle" style="text;html=1;strokeColor=none;fillColor=none;align=center;verticalAlign=middle;whiteSpace=wrap;rounded=0;" vertex="1" parent="WIyWlLk6GJQsqaUBKTNV-1">
          <mxGeometry x="720" y="1290" width="60" height="30" as="geometry" />
        </mxCell>
        <mxCell id="ZgeuHS7HHPoTLKe4cGhj-152" value="fasle" style="text;html=1;strokeColor=none;fillColor=none;align=center;verticalAlign=middle;whiteSpace=wrap;rounded=0;" vertex="1" parent="WIyWlLk6GJQsqaUBKTNV-1">
          <mxGeometry x="480" y="1280" width="60" height="30" as="geometry" />
        </mxCell>
        <mxCell id="ZgeuHS7HHPoTLKe4cGhj-153" value="" style="edgeStyle=orthogonalEdgeStyle;rounded=0;orthogonalLoop=1;jettySize=auto;html=1;" edge="1" parent="WIyWlLk6GJQsqaUBKTNV-1" source="ZgeuHS7HHPoTLKe4cGhj-155" target="ZgeuHS7HHPoTLKe4cGhj-157">
          <mxGeometry relative="1" as="geometry" />
        </mxCell>
        <mxCell id="ZgeuHS7HHPoTLKe4cGhj-154" value="" style="edgeStyle=orthogonalEdgeStyle;rounded=0;orthogonalLoop=1;jettySize=auto;html=1;" edge="1" parent="WIyWlLk6GJQsqaUBKTNV-1" source="ZgeuHS7HHPoTLKe4cGhj-155" target="ZgeuHS7HHPoTLKe4cGhj-180">
          <mxGeometry relative="1" as="geometry" />
        </mxCell>
        <mxCell id="ZgeuHS7HHPoTLKe4cGhj-155" value="case 3" style="rhombus;whiteSpace=wrap;html=1;" vertex="1" parent="WIyWlLk6GJQsqaUBKTNV-1">
          <mxGeometry x="140" y="1640" width="80" height="80" as="geometry" />
        </mxCell>
        <mxCell id="ZgeuHS7HHPoTLKe4cGhj-156" value="" style="edgeStyle=orthogonalEdgeStyle;rounded=0;orthogonalLoop=1;jettySize=auto;html=1;" edge="1" parent="WIyWlLk6GJQsqaUBKTNV-1" source="ZgeuHS7HHPoTLKe4cGhj-157" target="ZgeuHS7HHPoTLKe4cGhj-160">
          <mxGeometry relative="1" as="geometry" />
        </mxCell>
        <mxCell id="ZgeuHS7HHPoTLKe4cGhj-157" value="i=0" style="rounded=0;whiteSpace=wrap;html=1;" vertex="1" parent="WIyWlLk6GJQsqaUBKTNV-1">
          <mxGeometry x="260" y="1650" width="120" height="60" as="geometry" />
        </mxCell>
        <mxCell id="ZgeuHS7HHPoTLKe4cGhj-158" value="" style="edgeStyle=orthogonalEdgeStyle;rounded=0;orthogonalLoop=1;jettySize=auto;html=1;" edge="1" parent="WIyWlLk6GJQsqaUBKTNV-1" source="ZgeuHS7HHPoTLKe4cGhj-160">
          <mxGeometry relative="1" as="geometry">
            <mxPoint x="560" y="1680" as="targetPoint" />
          </mxGeometry>
        </mxCell>
        <mxCell id="ZgeuHS7HHPoTLKe4cGhj-159" style="edgeStyle=orthogonalEdgeStyle;rounded=0;orthogonalLoop=1;jettySize=auto;html=1;" edge="1" parent="WIyWlLk6GJQsqaUBKTNV-1" source="ZgeuHS7HHPoTLKe4cGhj-160">
          <mxGeometry relative="1" as="geometry">
            <mxPoint x="1550" y="1428.4000244140625" as="targetPoint" />
            <Array as="points">
              <mxPoint x="475" y="1880" />
              <mxPoint x="1551" y="1880" />
            </Array>
          </mxGeometry>
        </mxCell>
        <mxCell id="ZgeuHS7HHPoTLKe4cGhj-160" value="i&amp;lt;n-1" style="rhombus;whiteSpace=wrap;html=1;" vertex="1" parent="WIyWlLk6GJQsqaUBKTNV-1">
          <mxGeometry x="435" y="1640" width="80" height="80" as="geometry" />
        </mxCell>
        <mxCell id="ZgeuHS7HHPoTLKe4cGhj-161" value="" style="edgeStyle=orthogonalEdgeStyle;rounded=0;orthogonalLoop=1;jettySize=auto;html=1;" edge="1" parent="WIyWlLk6GJQsqaUBKTNV-1">
          <mxGeometry relative="1" as="geometry">
            <mxPoint x="680" y="1680" as="sourcePoint" />
            <mxPoint x="740" y="1680" as="targetPoint" />
          </mxGeometry>
        </mxCell>
        <mxCell id="ZgeuHS7HHPoTLKe4cGhj-162" value="" style="edgeStyle=orthogonalEdgeStyle;rounded=0;orthogonalLoop=1;jettySize=auto;html=1;" edge="1" parent="WIyWlLk6GJQsqaUBKTNV-1" source="ZgeuHS7HHPoTLKe4cGhj-164" target="ZgeuHS7HHPoTLKe4cGhj-167">
          <mxGeometry relative="1" as="geometry" />
        </mxCell>
        <mxCell id="ZgeuHS7HHPoTLKe4cGhj-163" style="edgeStyle=orthogonalEdgeStyle;rounded=0;orthogonalLoop=1;jettySize=auto;html=1;entryX=0.5;entryY=1;entryDx=0;entryDy=0;" edge="1" parent="WIyWlLk6GJQsqaUBKTNV-1" source="ZgeuHS7HHPoTLKe4cGhj-164" target="ZgeuHS7HHPoTLKe4cGhj-171">
          <mxGeometry relative="1" as="geometry">
            <Array as="points">
              <mxPoint x="780" y="1810" />
              <mxPoint x="1290" y="1810" />
            </Array>
          </mxGeometry>
        </mxCell>
        <mxCell id="ZgeuHS7HHPoTLKe4cGhj-164" value="j&amp;lt; n" style="rhombus;whiteSpace=wrap;html=1;" vertex="1" parent="WIyWlLk6GJQsqaUBKTNV-1">
          <mxGeometry x="740" y="1640" width="80" height="80" as="geometry" />
        </mxCell>
        <mxCell id="ZgeuHS7HHPoTLKe4cGhj-165" value="j = i+1" style="rounded=0;whiteSpace=wrap;html=1;" vertex="1" parent="WIyWlLk6GJQsqaUBKTNV-1">
          <mxGeometry x="560" y="1650" width="120" height="60" as="geometry" />
        </mxCell>
        <mxCell id="ZgeuHS7HHPoTLKe4cGhj-166" style="edgeStyle=orthogonalEdgeStyle;rounded=0;orthogonalLoop=1;jettySize=auto;html=1;" edge="1" parent="WIyWlLk6GJQsqaUBKTNV-1" source="ZgeuHS7HHPoTLKe4cGhj-167">
          <mxGeometry relative="1" as="geometry">
            <mxPoint x="940" y="1590" as="targetPoint" />
          </mxGeometry>
        </mxCell>
        <mxCell id="ZgeuHS7HHPoTLKe4cGhj-167" value="a[j] &amp;lt;a[j+1]" style="rhombus;whiteSpace=wrap;html=1;" vertex="1" parent="WIyWlLk6GJQsqaUBKTNV-1">
          <mxGeometry x="900" y="1640" width="80" height="80" as="geometry" />
        </mxCell>
        <mxCell id="ZgeuHS7HHPoTLKe4cGhj-168" value="" style="edgeStyle=orthogonalEdgeStyle;rounded=0;orthogonalLoop=1;jettySize=auto;html=1;" edge="1" parent="WIyWlLk6GJQsqaUBKTNV-1" source="ZgeuHS7HHPoTLKe4cGhj-169" target="ZgeuHS7HHPoTLKe4cGhj-171">
          <mxGeometry relative="1" as="geometry">
            <Array as="points">
              <mxPoint x="1200" y="1680" />
              <mxPoint x="1200" y="1680" />
            </Array>
          </mxGeometry>
        </mxCell>
        <mxCell id="ZgeuHS7HHPoTLKe4cGhj-169" value="temp = a[j]&lt;br&gt;a[i] = a[j+1]&lt;br&gt;a[j+1] = temp" style="rounded=0;whiteSpace=wrap;html=1;" vertex="1" parent="WIyWlLk6GJQsqaUBKTNV-1">
          <mxGeometry x="1030" y="1650" width="120" height="60" as="geometry" />
        </mxCell>
        <mxCell id="ZgeuHS7HHPoTLKe4cGhj-170" style="edgeStyle=orthogonalEdgeStyle;rounded=0;orthogonalLoop=1;jettySize=auto;html=1;entryX=0.5;entryY=0;entryDx=0;entryDy=0;" edge="1" parent="WIyWlLk6GJQsqaUBKTNV-1" source="ZgeuHS7HHPoTLKe4cGhj-171" target="ZgeuHS7HHPoTLKe4cGhj-160">
          <mxGeometry relative="1" as="geometry">
            <Array as="points">
              <mxPoint x="1290" y="1590" />
              <mxPoint x="475" y="1590" />
            </Array>
          </mxGeometry>
        </mxCell>
        <mxCell id="ZgeuHS7HHPoTLKe4cGhj-171" value="i++&lt;br&gt;j++" style="whiteSpace=wrap;html=1;rounded=0;" vertex="1" parent="WIyWlLk6GJQsqaUBKTNV-1">
          <mxGeometry x="1230" y="1650" width="120" height="60" as="geometry" />
        </mxCell>
        <mxCell id="ZgeuHS7HHPoTLKe4cGhj-172" value="true" style="text;html=1;strokeColor=none;fillColor=none;align=center;verticalAlign=middle;whiteSpace=wrap;rounded=0;" vertex="1" parent="WIyWlLk6GJQsqaUBKTNV-1">
          <mxGeometry x="500" y="1650" width="60" height="30" as="geometry" />
        </mxCell>
        <mxCell id="ZgeuHS7HHPoTLKe4cGhj-173" value="true" style="text;html=1;strokeColor=none;fillColor=none;align=center;verticalAlign=middle;whiteSpace=wrap;rounded=0;" vertex="1" parent="WIyWlLk6GJQsqaUBKTNV-1">
          <mxGeometry x="820" y="1650" width="60" height="30" as="geometry" />
        </mxCell>
        <mxCell id="ZgeuHS7HHPoTLKe4cGhj-174" value="true" style="text;html=1;strokeColor=none;fillColor=none;align=center;verticalAlign=middle;whiteSpace=wrap;rounded=0;" vertex="1" parent="WIyWlLk6GJQsqaUBKTNV-1">
          <mxGeometry x="970" y="1640" width="60" height="30" as="geometry" />
        </mxCell>
        <mxCell id="ZgeuHS7HHPoTLKe4cGhj-175" value="false" style="text;html=1;strokeColor=none;fillColor=none;align=center;verticalAlign=middle;whiteSpace=wrap;rounded=0;" vertex="1" parent="WIyWlLk6GJQsqaUBKTNV-1">
          <mxGeometry x="890" y="1605" width="60" height="30" as="geometry" />
        </mxCell>
        <mxCell id="ZgeuHS7HHPoTLKe4cGhj-176" value="fasle" style="text;html=1;strokeColor=none;fillColor=none;align=center;verticalAlign=middle;whiteSpace=wrap;rounded=0;" vertex="1" parent="WIyWlLk6GJQsqaUBKTNV-1">
          <mxGeometry x="720" y="1740" width="60" height="30" as="geometry" />
        </mxCell>
        <mxCell id="ZgeuHS7HHPoTLKe4cGhj-177" value="false" style="text;html=1;strokeColor=none;fillColor=none;align=center;verticalAlign=middle;whiteSpace=wrap;rounded=0;" vertex="1" parent="WIyWlLk6GJQsqaUBKTNV-1">
          <mxGeometry x="460" y="1740" width="60" height="30" as="geometry" />
        </mxCell>
        <mxCell id="ZgeuHS7HHPoTLKe4cGhj-178" value="" style="edgeStyle=orthogonalEdgeStyle;rounded=0;orthogonalLoop=1;jettySize=auto;html=1;" edge="1" parent="WIyWlLk6GJQsqaUBKTNV-1" source="ZgeuHS7HHPoTLKe4cGhj-180" target="ZgeuHS7HHPoTLKe4cGhj-181">
          <mxGeometry relative="1" as="geometry" />
        </mxCell>
        <mxCell id="ZgeuHS7HHPoTLKe4cGhj-179" value="" style="edgeStyle=orthogonalEdgeStyle;rounded=0;orthogonalLoop=1;jettySize=auto;html=1;" edge="1" parent="WIyWlLk6GJQsqaUBKTNV-1" source="ZgeuHS7HHPoTLKe4cGhj-180" target="ZgeuHS7HHPoTLKe4cGhj-183">
          <mxGeometry relative="1" as="geometry" />
        </mxCell>
        <mxCell id="ZgeuHS7HHPoTLKe4cGhj-180" value="case 4" style="rhombus;whiteSpace=wrap;html=1;" vertex="1" parent="WIyWlLk6GJQsqaUBKTNV-1">
          <mxGeometry x="140" y="1940" width="80" height="80" as="geometry" />
        </mxCell>
        <mxCell id="ZgeuHS7HHPoTLKe4cGhj-181" value="end" style="shape=parallelogram;perimeter=parallelogramPerimeter;whiteSpace=wrap;html=1;fixedSize=1;" vertex="1" parent="WIyWlLk6GJQsqaUBKTNV-1">
          <mxGeometry x="280" y="1950" width="120" height="60" as="geometry" />
        </mxCell>
        <mxCell id="ZgeuHS7HHPoTLKe4cGhj-182" style="edgeStyle=orthogonalEdgeStyle;rounded=0;orthogonalLoop=1;jettySize=auto;html=1;" edge="1" parent="WIyWlLk6GJQsqaUBKTNV-1" source="ZgeuHS7HHPoTLKe4cGhj-183">
          <mxGeometry relative="1" as="geometry">
            <mxPoint x="1550" y="1880" as="targetPoint" />
          </mxGeometry>
        </mxCell>
        <mxCell id="ZgeuHS7HHPoTLKe4cGhj-183" value="vui long nhap tu 1-4" style="shape=parallelogram;perimeter=parallelogramPerimeter;whiteSpace=wrap;html=1;fixedSize=1;" vertex="1" parent="WIyWlLk6GJQsqaUBKTNV-1">
          <mxGeometry x="120" y="2110" width="120" height="60" as="geometry" />
        </mxCell>
      </root>
    </mxGraphModel>
  </diagram>
  <diagram id="wEH-wtAv_vgebY8l2pgL" name="Trang-2">
    <mxGraphModel dx="11180" dy="6029" grid="1" gridSize="10" guides="1" tooltips="1" connect="1" arrows="1" fold="1" page="1" pageScale="1" pageWidth="827" pageHeight="1169" math="0" shadow="0">
      <root>
        <mxCell id="0" />
        <mxCell id="1" parent="0" />
        <mxCell id="e96zZERPspFIdt1fb_UC-1" style="edgeStyle=orthogonalEdgeStyle;rounded=0;orthogonalLoop=1;jettySize=auto;html=1;entryX=0.5;entryY=0;entryDx=0;entryDy=0;" edge="1" parent="1" source="e96zZERPspFIdt1fb_UC-2" target="e96zZERPspFIdt1fb_UC-4">
          <mxGeometry relative="1" as="geometry">
            <mxPoint x="410" y="190" as="targetPoint" />
          </mxGeometry>
        </mxCell>
        <mxCell id="e96zZERPspFIdt1fb_UC-2" value="start" style="ellipse;whiteSpace=wrap;html=1;" vertex="1" parent="1">
          <mxGeometry x="350" y="-30" width="120" height="80" as="geometry" />
        </mxCell>
        <mxCell id="e96zZERPspFIdt1fb_UC-3" style="edgeStyle=orthogonalEdgeStyle;rounded=0;orthogonalLoop=1;jettySize=auto;html=1;entryX=0.5;entryY=0;entryDx=0;entryDy=0;" edge="1" parent="1" source="e96zZERPspFIdt1fb_UC-4" target="e96zZERPspFIdt1fb_UC-6">
          <mxGeometry relative="1" as="geometry">
            <mxPoint x="410" y="290" as="targetPoint" />
          </mxGeometry>
        </mxCell>
        <mxCell id="e96zZERPspFIdt1fb_UC-4" value="&amp;nbsp;col ,row" style="shape=parallelogram;perimeter=parallelogramPerimeter;whiteSpace=wrap;html=1;fixedSize=1;" vertex="1" parent="1">
          <mxGeometry x="335" y="120" width="150" height="80" as="geometry" />
        </mxCell>
        <mxCell id="e96zZERPspFIdt1fb_UC-5" value="" style="edgeStyle=orthogonalEdgeStyle;rounded=0;orthogonalLoop=1;jettySize=auto;html=1;" edge="1" parent="1" source="e96zZERPspFIdt1fb_UC-6" target="e96zZERPspFIdt1fb_UC-11">
          <mxGeometry relative="1" as="geometry" />
        </mxCell>
        <mxCell id="e96zZERPspFIdt1fb_UC-6" value="i=0,j=0" style="rounded=1;whiteSpace=wrap;html=1;" vertex="1" parent="1">
          <mxGeometry x="350" y="260" width="120" height="60" as="geometry" />
        </mxCell>
        <mxCell id="e96zZERPspFIdt1fb_UC-7" value="" style="edgeStyle=orthogonalEdgeStyle;rounded=0;orthogonalLoop=1;jettySize=auto;html=1;" edge="1" parent="1" source="e96zZERPspFIdt1fb_UC-11" target="e96zZERPspFIdt1fb_UC-16">
          <mxGeometry relative="1" as="geometry" />
        </mxCell>
        <mxCell id="e96zZERPspFIdt1fb_UC-8" value="true" style="edgeLabel;html=1;align=center;verticalAlign=middle;resizable=0;points=[];" vertex="1" connectable="0" parent="e96zZERPspFIdt1fb_UC-7">
          <mxGeometry x="-0.45" relative="1" as="geometry">
            <mxPoint as="offset" />
          </mxGeometry>
        </mxCell>
        <mxCell id="e96zZERPspFIdt1fb_UC-9" style="edgeStyle=orthogonalEdgeStyle;rounded=0;orthogonalLoop=1;jettySize=auto;html=1;" edge="1" parent="1" source="e96zZERPspFIdt1fb_UC-11" target="e96zZERPspFIdt1fb_UC-24">
          <mxGeometry relative="1" as="geometry">
            <mxPoint x="129" y="1120" as="targetPoint" />
          </mxGeometry>
        </mxCell>
        <mxCell id="e96zZERPspFIdt1fb_UC-10" value="false" style="edgeLabel;html=1;align=center;verticalAlign=middle;resizable=0;points=[];" vertex="1" connectable="0" parent="e96zZERPspFIdt1fb_UC-9">
          <mxGeometry x="0.0629" relative="1" as="geometry">
            <mxPoint as="offset" />
          </mxGeometry>
        </mxCell>
        <mxCell id="e96zZERPspFIdt1fb_UC-11" value="i&amp;lt;row" style="rhombus;whiteSpace=wrap;html=1;rounded=1;" vertex="1" parent="1">
          <mxGeometry x="370" y="390" width="80" height="80" as="geometry" />
        </mxCell>
        <mxCell id="e96zZERPspFIdt1fb_UC-12" value="" style="edgeStyle=orthogonalEdgeStyle;rounded=0;orthogonalLoop=1;jettySize=auto;html=1;" edge="1" parent="1" source="e96zZERPspFIdt1fb_UC-16" target="e96zZERPspFIdt1fb_UC-18">
          <mxGeometry relative="1" as="geometry" />
        </mxCell>
        <mxCell id="e96zZERPspFIdt1fb_UC-13" value="true" style="edgeLabel;html=1;align=center;verticalAlign=middle;resizable=0;points=[];" vertex="1" connectable="0" parent="e96zZERPspFIdt1fb_UC-12">
          <mxGeometry x="-0.2889" y="3" relative="1" as="geometry">
            <mxPoint as="offset" />
          </mxGeometry>
        </mxCell>
        <mxCell id="e96zZERPspFIdt1fb_UC-14" value="" style="edgeStyle=orthogonalEdgeStyle;rounded=0;orthogonalLoop=1;jettySize=auto;html=1;" edge="1" parent="1" source="e96zZERPspFIdt1fb_UC-16" target="e96zZERPspFIdt1fb_UC-22">
          <mxGeometry relative="1" as="geometry" />
        </mxCell>
        <mxCell id="e96zZERPspFIdt1fb_UC-15" value="false" style="edgeLabel;html=1;align=center;verticalAlign=middle;resizable=0;points=[];" vertex="1" connectable="0" parent="e96zZERPspFIdt1fb_UC-14">
          <mxGeometry x="-0.0333" y="-1" relative="1" as="geometry">
            <mxPoint as="offset" />
          </mxGeometry>
        </mxCell>
        <mxCell id="e96zZERPspFIdt1fb_UC-16" value="j&amp;lt;col" style="rhombus;whiteSpace=wrap;html=1;rounded=1;" vertex="1" parent="1">
          <mxGeometry x="370" y="550" width="80" height="80" as="geometry" />
        </mxCell>
        <mxCell id="e96zZERPspFIdt1fb_UC-17" value="" style="edgeStyle=orthogonalEdgeStyle;rounded=0;orthogonalLoop=1;jettySize=auto;html=1;" edge="1" parent="1" source="e96zZERPspFIdt1fb_UC-18" target="e96zZERPspFIdt1fb_UC-20">
          <mxGeometry relative="1" as="geometry" />
        </mxCell>
        <mxCell id="e96zZERPspFIdt1fb_UC-18" value="arr[i][j]" style="shape=parallelogram;perimeter=parallelogramPerimeter;whiteSpace=wrap;html=1;fixedSize=1;rounded=1;" vertex="1" parent="1">
          <mxGeometry x="350" y="720" width="120" height="60" as="geometry" />
        </mxCell>
        <mxCell id="e96zZERPspFIdt1fb_UC-19" style="edgeStyle=orthogonalEdgeStyle;rounded=0;orthogonalLoop=1;jettySize=auto;html=1;entryX=0;entryY=0.5;entryDx=0;entryDy=0;" edge="1" parent="1" source="e96zZERPspFIdt1fb_UC-20" target="e96zZERPspFIdt1fb_UC-16">
          <mxGeometry relative="1" as="geometry">
            <mxPoint x="250" y="600" as="targetPoint" />
            <Array as="points">
              <mxPoint x="251" y="890" />
              <mxPoint x="251" y="590" />
            </Array>
          </mxGeometry>
        </mxCell>
        <mxCell id="e96zZERPspFIdt1fb_UC-20" value="j++" style="rounded=1;whiteSpace=wrap;html=1;" vertex="1" parent="1">
          <mxGeometry x="350" y="860" width="120" height="60" as="geometry" />
        </mxCell>
        <mxCell id="e96zZERPspFIdt1fb_UC-21" style="edgeStyle=orthogonalEdgeStyle;rounded=0;orthogonalLoop=1;jettySize=auto;html=1;entryX=1;entryY=0.5;entryDx=0;entryDy=0;" edge="1" parent="1" source="e96zZERPspFIdt1fb_UC-22" target="e96zZERPspFIdt1fb_UC-11">
          <mxGeometry relative="1" as="geometry">
            <mxPoint x="570" y="380" as="targetPoint" />
            <Array as="points">
              <mxPoint x="570" y="470" />
              <mxPoint x="571" y="470" />
              <mxPoint x="571" y="430" />
            </Array>
          </mxGeometry>
        </mxCell>
        <mxCell id="e96zZERPspFIdt1fb_UC-22" value="i++" style="whiteSpace=wrap;html=1;rounded=1;" vertex="1" parent="1">
          <mxGeometry x="510" y="560" width="120" height="60" as="geometry" />
        </mxCell>
        <mxCell id="e96zZERPspFIdt1fb_UC-23" value="" style="edgeStyle=orthogonalEdgeStyle;rounded=0;orthogonalLoop=1;jettySize=auto;html=1;" edge="1" parent="1" source="e96zZERPspFIdt1fb_UC-24" target="e96zZERPspFIdt1fb_UC-26">
          <mxGeometry relative="1" as="geometry" />
        </mxCell>
        <mxCell id="e96zZERPspFIdt1fb_UC-24" value="IN MENU" style="rounded=1;whiteSpace=wrap;html=1;" vertex="1" parent="1">
          <mxGeometry x="69" y="1090" width="120" height="60" as="geometry" />
        </mxCell>
        <mxCell id="e96zZERPspFIdt1fb_UC-25" value="" style="edgeStyle=orthogonalEdgeStyle;rounded=0;orthogonalLoop=1;jettySize=auto;html=1;" edge="1" parent="1" source="e96zZERPspFIdt1fb_UC-26" target="e96zZERPspFIdt1fb_UC-31">
          <mxGeometry relative="1" as="geometry" />
        </mxCell>
        <mxCell id="e96zZERPspFIdt1fb_UC-26" value="choice" style="shape=parallelogram;perimeter=parallelogramPerimeter;whiteSpace=wrap;html=1;fixedSize=1;rounded=1;" vertex="1" parent="1">
          <mxGeometry x="69" y="1230" width="120" height="60" as="geometry" />
        </mxCell>
        <mxCell id="e96zZERPspFIdt1fb_UC-27" style="edgeStyle=orthogonalEdgeStyle;rounded=0;orthogonalLoop=1;jettySize=auto;html=1;" edge="1" parent="1" source="e96zZERPspFIdt1fb_UC-31" target="e96zZERPspFIdt1fb_UC-36">
          <mxGeometry relative="1" as="geometry">
            <Array as="points">
              <mxPoint x="210" y="1430" />
              <mxPoint x="210" y="1430" />
            </Array>
          </mxGeometry>
        </mxCell>
        <mxCell id="e96zZERPspFIdt1fb_UC-28" value="true" style="edgeLabel;html=1;align=center;verticalAlign=middle;resizable=0;points=[];" vertex="1" connectable="0" parent="e96zZERPspFIdt1fb_UC-27">
          <mxGeometry x="-0.1775" y="-4" relative="1" as="geometry">
            <mxPoint as="offset" />
          </mxGeometry>
        </mxCell>
        <mxCell id="e96zZERPspFIdt1fb_UC-29" value="" style="edgeStyle=orthogonalEdgeStyle;rounded=0;orthogonalLoop=1;jettySize=auto;html=1;" edge="1" parent="1" source="e96zZERPspFIdt1fb_UC-31" target="e96zZERPspFIdt1fb_UC-51">
          <mxGeometry relative="1" as="geometry" />
        </mxCell>
        <mxCell id="e96zZERPspFIdt1fb_UC-30" value="falese" style="edgeLabel;html=1;align=center;verticalAlign=middle;resizable=0;points=[];" vertex="1" connectable="0" parent="e96zZERPspFIdt1fb_UC-29">
          <mxGeometry x="-0.0857" y="-5" relative="1" as="geometry">
            <mxPoint y="1" as="offset" />
          </mxGeometry>
        </mxCell>
        <mxCell id="e96zZERPspFIdt1fb_UC-31" value="choice==1" style="rhombus;whiteSpace=wrap;html=1;rounded=1;" vertex="1" parent="1">
          <mxGeometry x="73.5" y="1375" width="111" height="110" as="geometry" />
        </mxCell>
        <mxCell id="e96zZERPspFIdt1fb_UC-32" value="" style="edgeStyle=orthogonalEdgeStyle;rounded=0;orthogonalLoop=1;jettySize=auto;html=1;" edge="1" parent="1" source="e96zZERPspFIdt1fb_UC-36" target="e96zZERPspFIdt1fb_UC-40">
          <mxGeometry relative="1" as="geometry" />
        </mxCell>
        <mxCell id="e96zZERPspFIdt1fb_UC-33" value="true" style="edgeLabel;html=1;align=center;verticalAlign=middle;resizable=0;points=[];" vertex="1" connectable="0" parent="e96zZERPspFIdt1fb_UC-32">
          <mxGeometry x="-0.45" relative="1" as="geometry">
            <mxPoint as="offset" />
          </mxGeometry>
        </mxCell>
        <mxCell id="e96zZERPspFIdt1fb_UC-34" style="edgeStyle=orthogonalEdgeStyle;rounded=0;orthogonalLoop=1;jettySize=auto;html=1;" edge="1" parent="1" source="e96zZERPspFIdt1fb_UC-36">
          <mxGeometry relative="1" as="geometry">
            <mxPoint x="130" y="990" as="targetPoint" />
            <Array as="points">
              <mxPoint x="289" y="1620" />
              <mxPoint x="1190" y="1620" />
              <mxPoint x="1190" y="980" />
              <mxPoint x="130" y="980" />
            </Array>
          </mxGeometry>
        </mxCell>
        <mxCell id="e96zZERPspFIdt1fb_UC-35" value="false" style="edgeLabel;html=1;align=center;verticalAlign=middle;resizable=0;points=[];" vertex="1" connectable="0" parent="e96zZERPspFIdt1fb_UC-34">
          <mxGeometry x="-0.6391" y="-6" relative="1" as="geometry">
            <mxPoint as="offset" />
          </mxGeometry>
        </mxCell>
        <mxCell id="e96zZERPspFIdt1fb_UC-36" value="i&amp;lt;row" style="rhombus;whiteSpace=wrap;html=1;rounded=1;" vertex="1" parent="1">
          <mxGeometry x="248.94" y="1390" width="80" height="80" as="geometry" />
        </mxCell>
        <mxCell id="e96zZERPspFIdt1fb_UC-37" value="" style="edgeStyle=orthogonalEdgeStyle;rounded=0;orthogonalLoop=1;jettySize=auto;html=1;" edge="1" parent="1" source="e96zZERPspFIdt1fb_UC-40" target="e96zZERPspFIdt1fb_UC-42">
          <mxGeometry relative="1" as="geometry" />
        </mxCell>
        <mxCell id="e96zZERPspFIdt1fb_UC-38" value="true" style="edgeLabel;html=1;align=center;verticalAlign=middle;resizable=0;points=[];" vertex="1" connectable="0" parent="e96zZERPspFIdt1fb_UC-37">
          <mxGeometry x="-0.2889" y="3" relative="1" as="geometry">
            <mxPoint as="offset" />
          </mxGeometry>
        </mxCell>
        <mxCell id="e96zZERPspFIdt1fb_UC-39" value="false" style="edgeStyle=orthogonalEdgeStyle;rounded=0;orthogonalLoop=1;jettySize=auto;html=1;entryX=1;entryY=0.5;entryDx=0;entryDy=0;" edge="1" parent="1" source="e96zZERPspFIdt1fb_UC-40" target="e96zZERPspFIdt1fb_UC-46">
          <mxGeometry relative="1" as="geometry">
            <Array as="points">
              <mxPoint x="490" y="1310" />
              <mxPoint x="369" y="1310" />
            </Array>
          </mxGeometry>
        </mxCell>
        <mxCell id="e96zZERPspFIdt1fb_UC-40" value="j&amp;lt;col" style="rhombus;whiteSpace=wrap;html=1;rounded=1;" vertex="1" parent="1">
          <mxGeometry x="450" y="1390" width="80" height="80" as="geometry" />
        </mxCell>
        <mxCell id="e96zZERPspFIdt1fb_UC-41" value="" style="edgeStyle=orthogonalEdgeStyle;rounded=0;orthogonalLoop=1;jettySize=auto;html=1;" edge="1" parent="1" source="e96zZERPspFIdt1fb_UC-42" target="e96zZERPspFIdt1fb_UC-44">
          <mxGeometry relative="1" as="geometry" />
        </mxCell>
        <mxCell id="e96zZERPspFIdt1fb_UC-42" value="arr[i][j]" style="shape=parallelogram;perimeter=parallelogramPerimeter;whiteSpace=wrap;html=1;fixedSize=1;rounded=1;" vertex="1" parent="1">
          <mxGeometry x="630" y="1400" width="120" height="60" as="geometry" />
        </mxCell>
        <mxCell id="e96zZERPspFIdt1fb_UC-43" style="edgeStyle=orthogonalEdgeStyle;rounded=0;orthogonalLoop=1;jettySize=auto;html=1;entryX=0.5;entryY=1;entryDx=0;entryDy=0;" edge="1" parent="1" source="e96zZERPspFIdt1fb_UC-44" target="e96zZERPspFIdt1fb_UC-40">
          <mxGeometry relative="1" as="geometry">
            <mxPoint x="490" y="1500" as="targetPoint" />
            <Array as="points">
              <mxPoint x="940" y="1520" />
              <mxPoint x="490" y="1520" />
            </Array>
          </mxGeometry>
        </mxCell>
        <mxCell id="e96zZERPspFIdt1fb_UC-44" value="j++" style="rounded=1;whiteSpace=wrap;html=1;" vertex="1" parent="1">
          <mxGeometry x="880" y="1400" width="120" height="60" as="geometry" />
        </mxCell>
        <mxCell id="e96zZERPspFIdt1fb_UC-45" style="edgeStyle=orthogonalEdgeStyle;rounded=0;orthogonalLoop=1;jettySize=auto;html=1;entryX=0.5;entryY=0;entryDx=0;entryDy=0;" edge="1" parent="1" source="e96zZERPspFIdt1fb_UC-46" target="e96zZERPspFIdt1fb_UC-36">
          <mxGeometry relative="1" as="geometry">
            <mxPoint x="289" y="1360" as="targetPoint" />
            <Array as="points">
              <mxPoint x="289" y="1290" />
              <mxPoint x="290" y="1330" />
              <mxPoint x="289" y="1330" />
            </Array>
          </mxGeometry>
        </mxCell>
        <mxCell id="e96zZERPspFIdt1fb_UC-46" value="i++" style="whiteSpace=wrap;html=1;rounded=1;" vertex="1" parent="1">
          <mxGeometry x="248.94" y="1290" width="120" height="60" as="geometry" />
        </mxCell>
        <mxCell id="e96zZERPspFIdt1fb_UC-47" style="edgeStyle=orthogonalEdgeStyle;rounded=0;orthogonalLoop=1;jettySize=auto;html=1;entryX=0;entryY=0.5;entryDx=0;entryDy=0;" edge="1" parent="1" source="e96zZERPspFIdt1fb_UC-51" target="e96zZERPspFIdt1fb_UC-56">
          <mxGeometry relative="1" as="geometry" />
        </mxCell>
        <mxCell id="e96zZERPspFIdt1fb_UC-48" value="true" style="edgeLabel;html=1;align=center;verticalAlign=middle;resizable=0;points=[];" vertex="1" connectable="0" parent="e96zZERPspFIdt1fb_UC-47">
          <mxGeometry x="-0.1341" y="2" relative="1" as="geometry">
            <mxPoint as="offset" />
          </mxGeometry>
        </mxCell>
        <mxCell id="e96zZERPspFIdt1fb_UC-49" value="" style="edgeStyle=orthogonalEdgeStyle;rounded=0;orthogonalLoop=1;jettySize=auto;html=1;" edge="1" parent="1" source="e96zZERPspFIdt1fb_UC-51" target="e96zZERPspFIdt1fb_UC-103">
          <mxGeometry relative="1" as="geometry" />
        </mxCell>
        <mxCell id="e96zZERPspFIdt1fb_UC-50" value="false" style="edgeLabel;html=1;align=center;verticalAlign=middle;resizable=0;points=[];" vertex="1" connectable="0" parent="e96zZERPspFIdt1fb_UC-49">
          <mxGeometry x="0.0226" relative="1" as="geometry">
            <mxPoint y="1" as="offset" />
          </mxGeometry>
        </mxCell>
        <mxCell id="e96zZERPspFIdt1fb_UC-51" value="choice==2" style="rhombus;whiteSpace=wrap;html=1;rounded=1;" vertex="1" parent="1">
          <mxGeometry x="73.5" y="1870" width="111" height="110" as="geometry" />
        </mxCell>
        <mxCell id="e96zZERPspFIdt1fb_UC-52" value="" style="edgeStyle=orthogonalEdgeStyle;rounded=0;orthogonalLoop=1;jettySize=auto;html=1;" edge="1" parent="1" source="e96zZERPspFIdt1fb_UC-56" target="e96zZERPspFIdt1fb_UC-60">
          <mxGeometry relative="1" as="geometry" />
        </mxCell>
        <mxCell id="e96zZERPspFIdt1fb_UC-53" value="true" style="edgeLabel;html=1;align=center;verticalAlign=middle;resizable=0;points=[];" vertex="1" connectable="0" parent="e96zZERPspFIdt1fb_UC-52">
          <mxGeometry x="-0.45" relative="1" as="geometry">
            <mxPoint as="offset" />
          </mxGeometry>
        </mxCell>
        <mxCell id="e96zZERPspFIdt1fb_UC-54" style="edgeStyle=orthogonalEdgeStyle;rounded=0;orthogonalLoop=1;jettySize=auto;html=1;" edge="1" parent="1" source="e96zZERPspFIdt1fb_UC-56">
          <mxGeometry relative="1" as="geometry">
            <mxPoint x="1010" y="990" as="targetPoint" />
            <Array as="points">
              <mxPoint x="351" y="2290" />
              <mxPoint x="2140" y="2290" />
              <mxPoint x="2140" y="980" />
              <mxPoint x="1010" y="980" />
            </Array>
          </mxGeometry>
        </mxCell>
        <mxCell id="e96zZERPspFIdt1fb_UC-55" value="false" style="edgeLabel;html=1;align=center;verticalAlign=middle;resizable=0;points=[];" vertex="1" connectable="0" parent="e96zZERPspFIdt1fb_UC-54">
          <mxGeometry x="-0.5512" y="-9" relative="1" as="geometry">
            <mxPoint as="offset" />
          </mxGeometry>
        </mxCell>
        <mxCell id="e96zZERPspFIdt1fb_UC-56" value="i&amp;lt;row" style="rhombus;whiteSpace=wrap;html=1;rounded=1;" vertex="1" parent="1">
          <mxGeometry x="310" y="1880" width="80" height="80" as="geometry" />
        </mxCell>
        <mxCell id="e96zZERPspFIdt1fb_UC-57" value="" style="edgeStyle=orthogonalEdgeStyle;rounded=0;orthogonalLoop=1;jettySize=auto;html=1;entryX=0;entryY=0.5;entryDx=0;entryDy=0;" edge="1" parent="1" source="e96zZERPspFIdt1fb_UC-60" target="e96zZERPspFIdt1fb_UC-66">
          <mxGeometry relative="1" as="geometry">
            <mxPoint x="700" y="1920" as="targetPoint" />
          </mxGeometry>
        </mxCell>
        <mxCell id="e96zZERPspFIdt1fb_UC-58" value="true" style="edgeLabel;html=1;align=center;verticalAlign=middle;resizable=0;points=[];" vertex="1" connectable="0" parent="e96zZERPspFIdt1fb_UC-57">
          <mxGeometry x="-0.2889" y="3" relative="1" as="geometry">
            <mxPoint as="offset" />
          </mxGeometry>
        </mxCell>
        <mxCell id="e96zZERPspFIdt1fb_UC-59" value="false" style="edgeStyle=orthogonalEdgeStyle;rounded=0;orthogonalLoop=1;jettySize=auto;html=1;entryX=1;entryY=0.5;entryDx=0;entryDy=0;" edge="1" parent="1" source="e96zZERPspFIdt1fb_UC-60" target="e96zZERPspFIdt1fb_UC-64">
          <mxGeometry relative="1" as="geometry">
            <Array as="points">
              <mxPoint x="551.06" y="1800" />
              <mxPoint x="430.06" y="1800" />
            </Array>
          </mxGeometry>
        </mxCell>
        <mxCell id="e96zZERPspFIdt1fb_UC-60" value="j&amp;lt;col" style="rhombus;whiteSpace=wrap;html=1;rounded=1;" vertex="1" parent="1">
          <mxGeometry x="511.06" y="1880" width="80" height="80" as="geometry" />
        </mxCell>
        <mxCell id="e96zZERPspFIdt1fb_UC-61" style="edgeStyle=orthogonalEdgeStyle;rounded=0;orthogonalLoop=1;jettySize=auto;html=1;" edge="1" parent="1" source="e96zZERPspFIdt1fb_UC-62">
          <mxGeometry relative="1" as="geometry">
            <mxPoint x="480" y="1920" as="targetPoint" />
            <Array as="points">
              <mxPoint x="1620" y="2160" />
              <mxPoint x="480" y="2160" />
            </Array>
          </mxGeometry>
        </mxCell>
        <mxCell id="e96zZERPspFIdt1fb_UC-62" value="j++" style="rounded=1;whiteSpace=wrap;html=1;" vertex="1" parent="1">
          <mxGeometry x="1520" y="1890" width="120" height="60" as="geometry" />
        </mxCell>
        <mxCell id="e96zZERPspFIdt1fb_UC-63" style="edgeStyle=orthogonalEdgeStyle;rounded=0;orthogonalLoop=1;jettySize=auto;html=1;entryX=0.5;entryY=0;entryDx=0;entryDy=0;" edge="1" parent="1" source="e96zZERPspFIdt1fb_UC-64" target="e96zZERPspFIdt1fb_UC-56">
          <mxGeometry relative="1" as="geometry">
            <mxPoint x="350.06" y="1850" as="targetPoint" />
            <Array as="points">
              <mxPoint x="350.06" y="1780" />
              <mxPoint x="351.06" y="1820" />
              <mxPoint x="350.06" y="1820" />
            </Array>
          </mxGeometry>
        </mxCell>
        <mxCell id="e96zZERPspFIdt1fb_UC-64" value="i++" style="whiteSpace=wrap;html=1;rounded=1;" vertex="1" parent="1">
          <mxGeometry x="310" y="1780" width="120" height="60" as="geometry" />
        </mxCell>
        <mxCell id="e96zZERPspFIdt1fb_UC-65" value="" style="edgeStyle=orthogonalEdgeStyle;rounded=0;orthogonalLoop=1;jettySize=auto;html=1;" edge="1" parent="1" source="e96zZERPspFIdt1fb_UC-66" target="e96zZERPspFIdt1fb_UC-71">
          <mxGeometry relative="1" as="geometry" />
        </mxCell>
        <mxCell id="e96zZERPspFIdt1fb_UC-66" value="arr[i][j]&lt;br&gt;f=i-1" style="shape=parallelogram;perimeter=parallelogramPerimeter;whiteSpace=wrap;html=1;fixedSize=1;" vertex="1" parent="1">
          <mxGeometry x="690" y="1890" width="120" height="60" as="geometry" />
        </mxCell>
        <mxCell id="e96zZERPspFIdt1fb_UC-67" value="" style="edgeStyle=orthogonalEdgeStyle;rounded=0;orthogonalLoop=1;jettySize=auto;html=1;" edge="1" parent="1" source="e96zZERPspFIdt1fb_UC-71" target="e96zZERPspFIdt1fb_UC-73">
          <mxGeometry relative="1" as="geometry" />
        </mxCell>
        <mxCell id="e96zZERPspFIdt1fb_UC-68" value="true" style="edgeLabel;html=1;align=center;verticalAlign=middle;resizable=0;points=[];" vertex="1" connectable="0" parent="e96zZERPspFIdt1fb_UC-67">
          <mxGeometry x="-0.2099" y="6" relative="1" as="geometry">
            <mxPoint as="offset" />
          </mxGeometry>
        </mxCell>
        <mxCell id="e96zZERPspFIdt1fb_UC-69" value="" style="edgeStyle=orthogonalEdgeStyle;rounded=0;orthogonalLoop=1;jettySize=auto;html=1;" edge="1" parent="1" source="e96zZERPspFIdt1fb_UC-71" target="e96zZERPspFIdt1fb_UC-75">
          <mxGeometry relative="1" as="geometry" />
        </mxCell>
        <mxCell id="e96zZERPspFIdt1fb_UC-70" value="false" style="edgeLabel;html=1;align=center;verticalAlign=middle;resizable=0;points=[];" vertex="1" connectable="0" parent="e96zZERPspFIdt1fb_UC-69">
          <mxGeometry x="-0.2061" y="1" relative="1" as="geometry">
            <mxPoint as="offset" />
          </mxGeometry>
        </mxCell>
        <mxCell id="e96zZERPspFIdt1fb_UC-71" value="f&amp;gt;=0&amp;amp;&amp;amp;key&amp;lt;arr[i][f" style="rhombus;whiteSpace=wrap;html=1;" vertex="1" parent="1">
          <mxGeometry x="870" y="1850" width="180" height="140" as="geometry" />
        </mxCell>
        <mxCell id="e96zZERPspFIdt1fb_UC-72" style="edgeStyle=orthogonalEdgeStyle;rounded=0;orthogonalLoop=1;jettySize=auto;html=1;" edge="1" parent="1" source="e96zZERPspFIdt1fb_UC-73">
          <mxGeometry relative="1" as="geometry">
            <mxPoint x="830" y="1920" as="targetPoint" />
          </mxGeometry>
        </mxCell>
        <mxCell id="e96zZERPspFIdt1fb_UC-73" value="arr[i][f+1]=arr[i][f]f-=1;" style="whiteSpace=wrap;html=1;" vertex="1" parent="1">
          <mxGeometry x="850" y="2070" width="220" height="60" as="geometry" />
        </mxCell>
        <mxCell id="e96zZERPspFIdt1fb_UC-74" style="edgeStyle=orthogonalEdgeStyle;rounded=0;orthogonalLoop=1;jettySize=auto;html=1;entryX=0;entryY=0.5;entryDx=0;entryDy=0;" edge="1" parent="1" source="e96zZERPspFIdt1fb_UC-75" target="e96zZERPspFIdt1fb_UC-62">
          <mxGeometry relative="1" as="geometry" />
        </mxCell>
        <mxCell id="e96zZERPspFIdt1fb_UC-75" value="arr[i][f+1]=key;" style="whiteSpace=wrap;html=1;" vertex="1" parent="1">
          <mxGeometry x="1160" y="1890" width="190" height="60" as="geometry" />
        </mxCell>
        <mxCell id="e96zZERPspFIdt1fb_UC-76" value="" style="edgeStyle=orthogonalEdgeStyle;rounded=0;orthogonalLoop=1;jettySize=auto;html=1;" edge="1" parent="1" source="e96zZERPspFIdt1fb_UC-80" target="e96zZERPspFIdt1fb_UC-84">
          <mxGeometry relative="1" as="geometry" />
        </mxCell>
        <mxCell id="e96zZERPspFIdt1fb_UC-77" value="true" style="edgeLabel;html=1;align=center;verticalAlign=middle;resizable=0;points=[];" vertex="1" connectable="0" parent="e96zZERPspFIdt1fb_UC-76">
          <mxGeometry x="-0.45" relative="1" as="geometry">
            <mxPoint as="offset" />
          </mxGeometry>
        </mxCell>
        <mxCell id="e96zZERPspFIdt1fb_UC-78" style="edgeStyle=orthogonalEdgeStyle;rounded=0;orthogonalLoop=1;jettySize=auto;html=1;" edge="1" parent="1" source="e96zZERPspFIdt1fb_UC-80">
          <mxGeometry relative="1" as="geometry">
            <mxPoint x="2140" y="2142.5" as="targetPoint" />
            <Array as="points">
              <mxPoint x="361" y="2960" />
              <mxPoint x="2140" y="2960" />
            </Array>
          </mxGeometry>
        </mxCell>
        <mxCell id="e96zZERPspFIdt1fb_UC-79" value="false" style="edgeLabel;html=1;align=center;verticalAlign=middle;resizable=0;points=[];" vertex="1" connectable="0" parent="e96zZERPspFIdt1fb_UC-78">
          <mxGeometry x="-0.8626" y="-1" relative="1" as="geometry">
            <mxPoint x="-1" y="-1" as="offset" />
          </mxGeometry>
        </mxCell>
        <mxCell id="e96zZERPspFIdt1fb_UC-80" value="i&amp;lt;col" style="rhombus;whiteSpace=wrap;html=1;rounded=1;" vertex="1" parent="1">
          <mxGeometry x="320" y="2500" width="80" height="80" as="geometry" />
        </mxCell>
        <mxCell id="e96zZERPspFIdt1fb_UC-81" value="" style="edgeStyle=orthogonalEdgeStyle;rounded=0;orthogonalLoop=1;jettySize=auto;html=1;entryX=0;entryY=0.5;entryDx=0;entryDy=0;" edge="1" parent="1" source="e96zZERPspFIdt1fb_UC-84" target="e96zZERPspFIdt1fb_UC-90">
          <mxGeometry relative="1" as="geometry">
            <mxPoint x="710" y="2540" as="targetPoint" />
          </mxGeometry>
        </mxCell>
        <mxCell id="e96zZERPspFIdt1fb_UC-82" value="true" style="edgeLabel;html=1;align=center;verticalAlign=middle;resizable=0;points=[];" vertex="1" connectable="0" parent="e96zZERPspFIdt1fb_UC-81">
          <mxGeometry x="-0.2889" y="3" relative="1" as="geometry">
            <mxPoint as="offset" />
          </mxGeometry>
        </mxCell>
        <mxCell id="e96zZERPspFIdt1fb_UC-83" value="false" style="edgeStyle=orthogonalEdgeStyle;rounded=0;orthogonalLoop=1;jettySize=auto;html=1;entryX=1;entryY=0.5;entryDx=0;entryDy=0;" edge="1" parent="1" source="e96zZERPspFIdt1fb_UC-84" target="e96zZERPspFIdt1fb_UC-88">
          <mxGeometry relative="1" as="geometry">
            <Array as="points">
              <mxPoint x="561.06" y="2420" />
              <mxPoint x="440.06" y="2420" />
            </Array>
          </mxGeometry>
        </mxCell>
        <mxCell id="e96zZERPspFIdt1fb_UC-84" value="j&amp;lt;row" style="rhombus;whiteSpace=wrap;html=1;rounded=1;" vertex="1" parent="1">
          <mxGeometry x="521.06" y="2500" width="80" height="80" as="geometry" />
        </mxCell>
        <mxCell id="e96zZERPspFIdt1fb_UC-85" style="edgeStyle=orthogonalEdgeStyle;rounded=0;orthogonalLoop=1;jettySize=auto;html=1;entryX=0.417;entryY=0.963;entryDx=0;entryDy=0;entryPerimeter=0;" edge="1" parent="1" source="e96zZERPspFIdt1fb_UC-86" target="e96zZERPspFIdt1fb_UC-84">
          <mxGeometry relative="1" as="geometry">
            <mxPoint x="650" y="2840" as="targetPoint" />
            <Array as="points">
              <mxPoint x="1630" y="2780" />
              <mxPoint x="554" y="2780" />
            </Array>
          </mxGeometry>
        </mxCell>
        <mxCell id="e96zZERPspFIdt1fb_UC-86" value="j++" style="rounded=1;whiteSpace=wrap;html=1;" vertex="1" parent="1">
          <mxGeometry x="1530" y="2510" width="120" height="60" as="geometry" />
        </mxCell>
        <mxCell id="e96zZERPspFIdt1fb_UC-87" style="edgeStyle=orthogonalEdgeStyle;rounded=0;orthogonalLoop=1;jettySize=auto;html=1;entryX=0.5;entryY=0;entryDx=0;entryDy=0;" edge="1" parent="1" source="e96zZERPspFIdt1fb_UC-88" target="e96zZERPspFIdt1fb_UC-80">
          <mxGeometry relative="1" as="geometry">
            <mxPoint x="360.06" y="2470" as="targetPoint" />
            <Array as="points">
              <mxPoint x="360.06" y="2400" />
              <mxPoint x="361.06" y="2440" />
              <mxPoint x="360.06" y="2440" />
            </Array>
          </mxGeometry>
        </mxCell>
        <mxCell id="e96zZERPspFIdt1fb_UC-88" value="i++" style="whiteSpace=wrap;html=1;rounded=1;" vertex="1" parent="1">
          <mxGeometry x="320" y="2400" width="120" height="60" as="geometry" />
        </mxCell>
        <mxCell id="e96zZERPspFIdt1fb_UC-89" value="" style="edgeStyle=orthogonalEdgeStyle;rounded=0;orthogonalLoop=1;jettySize=auto;html=1;" edge="1" parent="1" source="e96zZERPspFIdt1fb_UC-90" target="e96zZERPspFIdt1fb_UC-95">
          <mxGeometry relative="1" as="geometry" />
        </mxCell>
        <mxCell id="e96zZERPspFIdt1fb_UC-90" value="arr[f][i]&lt;br&gt;f=i-1" style="shape=parallelogram;perimeter=parallelogramPerimeter;whiteSpace=wrap;html=1;fixedSize=1;" vertex="1" parent="1">
          <mxGeometry x="700" y="2510" width="120" height="60" as="geometry" />
        </mxCell>
        <mxCell id="e96zZERPspFIdt1fb_UC-91" value="" style="edgeStyle=orthogonalEdgeStyle;rounded=0;orthogonalLoop=1;jettySize=auto;html=1;" edge="1" parent="1" source="e96zZERPspFIdt1fb_UC-95" target="e96zZERPspFIdt1fb_UC-97">
          <mxGeometry relative="1" as="geometry" />
        </mxCell>
        <mxCell id="e96zZERPspFIdt1fb_UC-92" value="true" style="edgeLabel;html=1;align=center;verticalAlign=middle;resizable=0;points=[];" vertex="1" connectable="0" parent="e96zZERPspFIdt1fb_UC-91">
          <mxGeometry x="-0.2099" y="6" relative="1" as="geometry">
            <mxPoint as="offset" />
          </mxGeometry>
        </mxCell>
        <mxCell id="e96zZERPspFIdt1fb_UC-93" value="" style="edgeStyle=orthogonalEdgeStyle;rounded=0;orthogonalLoop=1;jettySize=auto;html=1;" edge="1" parent="1" source="e96zZERPspFIdt1fb_UC-95" target="e96zZERPspFIdt1fb_UC-99">
          <mxGeometry relative="1" as="geometry" />
        </mxCell>
        <mxCell id="e96zZERPspFIdt1fb_UC-94" value="false" style="edgeLabel;html=1;align=center;verticalAlign=middle;resizable=0;points=[];" vertex="1" connectable="0" parent="e96zZERPspFIdt1fb_UC-93">
          <mxGeometry x="-0.2061" y="1" relative="1" as="geometry">
            <mxPoint as="offset" />
          </mxGeometry>
        </mxCell>
        <mxCell id="e96zZERPspFIdt1fb_UC-95" value="f&gt;=0&amp;&amp;key&gt;arr[f][i]" style="rhombus;whiteSpace=wrap;html=1;" vertex="1" parent="1">
          <mxGeometry x="880" y="2470" width="180" height="140" as="geometry" />
        </mxCell>
        <mxCell id="e96zZERPspFIdt1fb_UC-96" style="edgeStyle=orthogonalEdgeStyle;rounded=0;orthogonalLoop=1;jettySize=auto;html=1;" edge="1" parent="1" source="e96zZERPspFIdt1fb_UC-97">
          <mxGeometry relative="1" as="geometry">
            <mxPoint x="840" y="2540" as="targetPoint" />
          </mxGeometry>
        </mxCell>
        <mxCell id="e96zZERPspFIdt1fb_UC-97" value="arr[f+1][i]=arr[f][i]f-=1;" style="whiteSpace=wrap;html=1;" vertex="1" parent="1">
          <mxGeometry x="860" y="2690" width="220" height="60" as="geometry" />
        </mxCell>
        <mxCell id="e96zZERPspFIdt1fb_UC-98" style="edgeStyle=orthogonalEdgeStyle;rounded=0;orthogonalLoop=1;jettySize=auto;html=1;entryX=0;entryY=0.5;entryDx=0;entryDy=0;" edge="1" parent="1" source="e96zZERPspFIdt1fb_UC-99" target="e96zZERPspFIdt1fb_UC-86">
          <mxGeometry relative="1" as="geometry" />
        </mxCell>
        <mxCell id="e96zZERPspFIdt1fb_UC-99" value="arr[f+1][i]=key;" style="whiteSpace=wrap;html=1;" vertex="1" parent="1">
          <mxGeometry x="1170" y="2510" width="190" height="60" as="geometry" />
        </mxCell>
        <mxCell id="e96zZERPspFIdt1fb_UC-100" style="edgeStyle=orthogonalEdgeStyle;rounded=0;orthogonalLoop=1;jettySize=auto;html=1;" edge="1" parent="1" source="e96zZERPspFIdt1fb_UC-103" target="e96zZERPspFIdt1fb_UC-80">
          <mxGeometry relative="1" as="geometry" />
        </mxCell>
        <mxCell id="e96zZERPspFIdt1fb_UC-101" value="true" style="edgeLabel;html=1;align=center;verticalAlign=middle;resizable=0;points=[];" vertex="1" connectable="0" parent="e96zZERPspFIdt1fb_UC-100">
          <mxGeometry x="-0.0481" y="3" relative="1" as="geometry">
            <mxPoint as="offset" />
          </mxGeometry>
        </mxCell>
        <mxCell id="e96zZERPspFIdt1fb_UC-102" value="" style="edgeStyle=orthogonalEdgeStyle;rounded=0;orthogonalLoop=1;jettySize=auto;html=1;" edge="1" parent="1" source="e96zZERPspFIdt1fb_UC-103" target="e96zZERPspFIdt1fb_UC-106">
          <mxGeometry relative="1" as="geometry" />
        </mxCell>
        <mxCell id="e96zZERPspFIdt1fb_UC-103" value="choice==3" style="rhombus;whiteSpace=wrap;html=1;rounded=1;" vertex="1" parent="1">
          <mxGeometry x="73.5" y="2510" width="111" height="110" as="geometry" />
        </mxCell>
        <mxCell id="e96zZERPspFIdt1fb_UC-104" value="" style="edgeStyle=orthogonalEdgeStyle;rounded=0;orthogonalLoop=1;jettySize=auto;html=1;" edge="1" parent="1" source="e96zZERPspFIdt1fb_UC-106" target="e96zZERPspFIdt1fb_UC-107">
          <mxGeometry relative="1" as="geometry" />
        </mxCell>
        <mxCell id="e96zZERPspFIdt1fb_UC-105" value="" style="edgeStyle=orthogonalEdgeStyle;rounded=0;orthogonalLoop=1;jettySize=auto;html=1;" edge="1" parent="1" source="e96zZERPspFIdt1fb_UC-106" target="e96zZERPspFIdt1fb_UC-109">
          <mxGeometry relative="1" as="geometry">
            <mxPoint x="129" y="3160" as="targetPoint" />
          </mxGeometry>
        </mxCell>
        <mxCell id="e96zZERPspFIdt1fb_UC-106" value="choice==4" style="rhombus;whiteSpace=wrap;html=1;rounded=1;" vertex="1" parent="1">
          <mxGeometry x="73.5" y="2970" width="111" height="110" as="geometry" />
        </mxCell>
        <mxCell id="e96zZERPspFIdt1fb_UC-107" value="end" style="ellipse;whiteSpace=wrap;html=1;rounded=1;" vertex="1" parent="1">
          <mxGeometry x="450" y="3050" width="121" height="55" as="geometry" />
        </mxCell>
        <mxCell id="e96zZERPspFIdt1fb_UC-108" style="edgeStyle=orthogonalEdgeStyle;rounded=0;orthogonalLoop=1;jettySize=auto;html=1;exitX=1;exitY=0.5;exitDx=0;exitDy=0;" edge="1" parent="1" source="e96zZERPspFIdt1fb_UC-109">
          <mxGeometry relative="1" as="geometry">
            <mxPoint x="2138.5714285714284" y="2950" as="targetPoint" />
            <mxPoint x="189" y="3160" as="sourcePoint" />
          </mxGeometry>
        </mxCell>
        <mxCell id="e96zZERPspFIdt1fb_UC-109" value="Vui long nhap 1-4" style="shape=parallelogram;perimeter=parallelogramPerimeter;whiteSpace=wrap;html=1;fixedSize=1;" vertex="1" parent="1">
          <mxGeometry x="69" y="3130" width="120" height="60" as="geometry" />
        </mxCell>
      </root>
    </mxGraphModel>
  </diagram>
  <diagram id="bjpQQ2hsJ5vndavYfryG" name="Trang-3">
    <mxGraphModel dx="1118" dy="486" grid="1" gridSize="10" guides="1" tooltips="1" connect="1" arrows="1" fold="1" page="1" pageScale="1" pageWidth="827" pageHeight="1169" math="0" shadow="0">
      <root>
        <mxCell id="0" />
        <mxCell id="1" parent="0" />
        <mxCell id="dF6EAg90yfkV_svSzxrW-1" style="edgeStyle=orthogonalEdgeStyle;rounded=0;orthogonalLoop=1;jettySize=auto;html=1;" edge="1" parent="1" source="dF6EAg90yfkV_svSzxrW-2" target="dF6EAg90yfkV_svSzxrW-4">
          <mxGeometry relative="1" as="geometry" />
        </mxCell>
        <mxCell id="dF6EAg90yfkV_svSzxrW-2" value="start" style="ellipse;whiteSpace=wrap;html=1;" vertex="1" parent="1">
          <mxGeometry x="290" y="170" width="120" height="80" as="geometry" />
        </mxCell>
        <mxCell id="dF6EAg90yfkV_svSzxrW-3" style="edgeStyle=orthogonalEdgeStyle;rounded=0;orthogonalLoop=1;jettySize=auto;html=1;entryX=0.5;entryY=0;entryDx=0;entryDy=0;" edge="1" parent="1" source="dF6EAg90yfkV_svSzxrW-4" target="dF6EAg90yfkV_svSzxrW-6">
          <mxGeometry relative="1" as="geometry" />
        </mxCell>
        <mxCell id="dF6EAg90yfkV_svSzxrW-4" value="n, i, mid,j, end, start, choice, find,size" style="shape=parallelogram;perimeter=parallelogramPerimeter;whiteSpace=wrap;html=1;fixedSize=1;" vertex="1" parent="1">
          <mxGeometry x="240" y="360" width="220" height="80" as="geometry" />
        </mxCell>
        <mxCell id="dF6EAg90yfkV_svSzxrW-5" value="" style="edgeStyle=orthogonalEdgeStyle;rounded=0;orthogonalLoop=1;jettySize=auto;html=1;" edge="1" parent="1" source="dF6EAg90yfkV_svSzxrW-6" target="dF6EAg90yfkV_svSzxrW-9">
          <mxGeometry relative="1" as="geometry" />
        </mxCell>
        <mxCell id="dF6EAg90yfkV_svSzxrW-6" value="i=1&lt;br&gt;int arr[n]" style="rounded=0;whiteSpace=wrap;html=1;" vertex="1" parent="1">
          <mxGeometry x="290" y="520" width="120" height="60" as="geometry" />
        </mxCell>
        <mxCell id="dF6EAg90yfkV_svSzxrW-7" value="" style="edgeStyle=orthogonalEdgeStyle;rounded=0;orthogonalLoop=1;jettySize=auto;html=1;" edge="1" parent="1" source="dF6EAg90yfkV_svSzxrW-9" target="dF6EAg90yfkV_svSzxrW-11">
          <mxGeometry relative="1" as="geometry" />
        </mxCell>
        <mxCell id="dF6EAg90yfkV_svSzxrW-8" value="true" style="edgeLabel;html=1;align=center;verticalAlign=middle;resizable=0;points=[];" vertex="1" connectable="0" parent="dF6EAg90yfkV_svSzxrW-7">
          <mxGeometry x="-0.425" y="-4" relative="1" as="geometry">
            <mxPoint as="offset" />
          </mxGeometry>
        </mxCell>
        <mxCell id="dF6EAg90yfkV_svSzxrW-9" value="i&amp;lt;size" style="rhombus;whiteSpace=wrap;html=1;" vertex="1" parent="1">
          <mxGeometry x="310" y="640" width="80" height="80" as="geometry" />
        </mxCell>
        <mxCell id="dF6EAg90yfkV_svSzxrW-10" value="" style="edgeStyle=orthogonalEdgeStyle;rounded=0;orthogonalLoop=1;jettySize=auto;html=1;" edge="1" parent="1" source="dF6EAg90yfkV_svSzxrW-11" target="dF6EAg90yfkV_svSzxrW-16">
          <mxGeometry relative="1" as="geometry" />
        </mxCell>
        <mxCell id="dF6EAg90yfkV_svSzxrW-11" value="int key=arr[i]&lt;br&gt;j=i-1" style="rounded=0;whiteSpace=wrap;html=1;" vertex="1" parent="1">
          <mxGeometry x="290" y="760" width="120" height="60" as="geometry" />
        </mxCell>
        <mxCell id="dF6EAg90yfkV_svSzxrW-12" value="" style="edgeStyle=orthogonalEdgeStyle;rounded=0;orthogonalLoop=1;jettySize=auto;html=1;" edge="1" parent="1" source="dF6EAg90yfkV_svSzxrW-16" target="dF6EAg90yfkV_svSzxrW-18">
          <mxGeometry relative="1" as="geometry" />
        </mxCell>
        <mxCell id="dF6EAg90yfkV_svSzxrW-13" value="true" style="edgeLabel;html=1;align=center;verticalAlign=middle;resizable=0;points=[];" vertex="1" connectable="0" parent="dF6EAg90yfkV_svSzxrW-12">
          <mxGeometry x="-0.375" y="1" relative="1" as="geometry">
            <mxPoint y="1" as="offset" />
          </mxGeometry>
        </mxCell>
        <mxCell id="dF6EAg90yfkV_svSzxrW-14" value="" style="edgeStyle=orthogonalEdgeStyle;rounded=0;orthogonalLoop=1;jettySize=auto;html=1;" edge="1" parent="1" source="dF6EAg90yfkV_svSzxrW-16" target="dF6EAg90yfkV_svSzxrW-20">
          <mxGeometry relative="1" as="geometry" />
        </mxCell>
        <mxCell id="dF6EAg90yfkV_svSzxrW-15" value="false" style="edgeLabel;html=1;align=center;verticalAlign=middle;resizable=0;points=[];" vertex="1" connectable="0" parent="dF6EAg90yfkV_svSzxrW-14">
          <mxGeometry x="0.0167" relative="1" as="geometry">
            <mxPoint y="1" as="offset" />
          </mxGeometry>
        </mxCell>
        <mxCell id="dF6EAg90yfkV_svSzxrW-16" value="j&amp;gt;=0&amp;amp;&amp;amp;&lt;br&gt;arr[j]&amp;gt;key" style="rhombus;whiteSpace=wrap;html=1;" vertex="1" parent="1">
          <mxGeometry x="500" y="750" width="80" height="80" as="geometry" />
        </mxCell>
        <mxCell id="dF6EAg90yfkV_svSzxrW-17" style="edgeStyle=orthogonalEdgeStyle;rounded=0;orthogonalLoop=1;jettySize=auto;html=1;" edge="1" parent="1" source="dF6EAg90yfkV_svSzxrW-18">
          <mxGeometry relative="1" as="geometry">
            <mxPoint x="440" y="790" as="targetPoint" />
            <Array as="points">
              <mxPoint x="720" y="890" />
              <mxPoint x="440" y="890" />
            </Array>
          </mxGeometry>
        </mxCell>
        <mxCell id="dF6EAg90yfkV_svSzxrW-18" value="arr[j+1]=arr[i]&lt;br&gt;j=j-1" style="rounded=0;whiteSpace=wrap;html=1;" vertex="1" parent="1">
          <mxGeometry x="660" y="760" width="120" height="60" as="geometry" />
        </mxCell>
        <mxCell id="dF6EAg90yfkV_svSzxrW-19" style="edgeStyle=orthogonalEdgeStyle;rounded=0;orthogonalLoop=1;jettySize=auto;html=1;" edge="1" parent="1" source="dF6EAg90yfkV_svSzxrW-20">
          <mxGeometry relative="1" as="geometry">
            <mxPoint x="350" y="600" as="targetPoint" />
            <Array as="points">
              <mxPoint x="540" y="600" />
            </Array>
          </mxGeometry>
        </mxCell>
        <mxCell id="dF6EAg90yfkV_svSzxrW-20" value="arr[j+1]=key" style="rounded=0;whiteSpace=wrap;html=1;" vertex="1" parent="1">
          <mxGeometry x="480" y="630" width="120" height="60" as="geometry" />
        </mxCell>
        <mxCell id="dF6EAg90yfkV_svSzxrW-21" value="" style="edgeStyle=orthogonalEdgeStyle;rounded=0;orthogonalLoop=1;jettySize=auto;html=1;" edge="1" parent="1" source="dF6EAg90yfkV_svSzxrW-22" target="dF6EAg90yfkV_svSzxrW-26">
          <mxGeometry relative="1" as="geometry" />
        </mxCell>
        <mxCell id="dF6EAg90yfkV_svSzxrW-22" value="menu" style="rounded=0;whiteSpace=wrap;html=1;shape=parallelogram;perimeter=parallelogramPerimeter;fixedSize=1;" vertex="1" parent="1">
          <mxGeometry x="300" y="910" width="120" height="60" as="geometry" />
        </mxCell>
        <mxCell id="dF6EAg90yfkV_svSzxrW-23" style="edgeStyle=orthogonalEdgeStyle;rounded=0;orthogonalLoop=1;jettySize=auto;html=1;entryX=0;entryY=0.5;entryDx=0;entryDy=0;" edge="1" parent="1" source="dF6EAg90yfkV_svSzxrW-9" target="dF6EAg90yfkV_svSzxrW-22">
          <mxGeometry relative="1" as="geometry">
            <Array as="points">
              <mxPoint x="200" y="680" />
              <mxPoint x="200" y="950" />
              <mxPoint x="300" y="950" />
            </Array>
          </mxGeometry>
        </mxCell>
        <mxCell id="dF6EAg90yfkV_svSzxrW-24" value="false" style="edgeLabel;html=1;align=center;verticalAlign=middle;resizable=0;points=[];" vertex="1" connectable="0" parent="dF6EAg90yfkV_svSzxrW-23">
          <mxGeometry x="-0.1369" y="-2" relative="1" as="geometry">
            <mxPoint as="offset" />
          </mxGeometry>
        </mxCell>
        <mxCell id="dF6EAg90yfkV_svSzxrW-25" value="" style="edgeStyle=orthogonalEdgeStyle;rounded=0;orthogonalLoop=1;jettySize=auto;html=1;" edge="1" parent="1" source="dF6EAg90yfkV_svSzxrW-26" target="dF6EAg90yfkV_svSzxrW-31">
          <mxGeometry relative="1" as="geometry" />
        </mxCell>
        <mxCell id="dF6EAg90yfkV_svSzxrW-26" value="choice" style="shape=parallelogram;perimeter=parallelogramPerimeter;whiteSpace=wrap;html=1;fixedSize=1;" vertex="1" parent="1">
          <mxGeometry x="300" y="1080" width="120" height="60" as="geometry" />
        </mxCell>
        <mxCell id="dF6EAg90yfkV_svSzxrW-27" value="" style="edgeStyle=orthogonalEdgeStyle;rounded=0;orthogonalLoop=1;jettySize=auto;html=1;" edge="1" parent="1" source="dF6EAg90yfkV_svSzxrW-31" target="dF6EAg90yfkV_svSzxrW-36">
          <mxGeometry relative="1" as="geometry" />
        </mxCell>
        <mxCell id="dF6EAg90yfkV_svSzxrW-28" value="false" style="edgeLabel;html=1;align=center;verticalAlign=middle;resizable=0;points=[];" vertex="1" connectable="0" parent="dF6EAg90yfkV_svSzxrW-27">
          <mxGeometry x="0.0667" y="-2" relative="1" as="geometry">
            <mxPoint as="offset" />
          </mxGeometry>
        </mxCell>
        <mxCell id="dF6EAg90yfkV_svSzxrW-29" value="" style="edgeStyle=orthogonalEdgeStyle;rounded=0;orthogonalLoop=1;jettySize=auto;html=1;entryX=0;entryY=0.5;entryDx=0;entryDy=0;" edge="1" parent="1" source="dF6EAg90yfkV_svSzxrW-31" target="dF6EAg90yfkV_svSzxrW-38">
          <mxGeometry relative="1" as="geometry">
            <mxPoint x="640" y="1110" as="targetPoint" />
          </mxGeometry>
        </mxCell>
        <mxCell id="dF6EAg90yfkV_svSzxrW-30" value="true" style="edgeLabel;html=1;align=center;verticalAlign=middle;resizable=0;points=[];" vertex="1" connectable="0" parent="dF6EAg90yfkV_svSzxrW-29">
          <mxGeometry x="-0.15" y="3" relative="1" as="geometry">
            <mxPoint as="offset" />
          </mxGeometry>
        </mxCell>
        <mxCell id="dF6EAg90yfkV_svSzxrW-31" value="case==1" style="rhombus;whiteSpace=wrap;html=1;" vertex="1" parent="1">
          <mxGeometry x="480" y="1070" width="80" height="80" as="geometry" />
        </mxCell>
        <mxCell id="dF6EAg90yfkV_svSzxrW-32" value="" style="edgeStyle=orthogonalEdgeStyle;rounded=0;orthogonalLoop=1;jettySize=auto;html=1;" edge="1" parent="1" source="dF6EAg90yfkV_svSzxrW-36" target="dF6EAg90yfkV_svSzxrW-47">
          <mxGeometry relative="1" as="geometry" />
        </mxCell>
        <mxCell id="dF6EAg90yfkV_svSzxrW-33" value="true" style="edgeLabel;html=1;align=center;verticalAlign=middle;resizable=0;points=[];" vertex="1" connectable="0" parent="dF6EAg90yfkV_svSzxrW-32">
          <mxGeometry x="-0.375" y="-1" relative="1" as="geometry">
            <mxPoint as="offset" />
          </mxGeometry>
        </mxCell>
        <mxCell id="dF6EAg90yfkV_svSzxrW-34" style="edgeStyle=orthogonalEdgeStyle;rounded=0;orthogonalLoop=1;jettySize=auto;html=1;" edge="1" parent="1" source="dF6EAg90yfkV_svSzxrW-36" target="dF6EAg90yfkV_svSzxrW-61">
          <mxGeometry relative="1" as="geometry" />
        </mxCell>
        <mxCell id="dF6EAg90yfkV_svSzxrW-35" value="false" style="edgeLabel;html=1;align=center;verticalAlign=middle;resizable=0;points=[];" vertex="1" connectable="0" parent="dF6EAg90yfkV_svSzxrW-34">
          <mxGeometry x="-0.005" relative="1" as="geometry">
            <mxPoint y="-1" as="offset" />
          </mxGeometry>
        </mxCell>
        <mxCell id="dF6EAg90yfkV_svSzxrW-36" value="case==2" style="rhombus;whiteSpace=wrap;html=1;" vertex="1" parent="1">
          <mxGeometry x="480" y="1380" width="80" height="80" as="geometry" />
        </mxCell>
        <mxCell id="dF6EAg90yfkV_svSzxrW-37" value="" style="edgeStyle=orthogonalEdgeStyle;rounded=0;orthogonalLoop=1;jettySize=auto;html=1;" edge="1" parent="1" source="dF6EAg90yfkV_svSzxrW-38" target="dF6EAg90yfkV_svSzxrW-44">
          <mxGeometry relative="1" as="geometry" />
        </mxCell>
        <mxCell id="dF6EAg90yfkV_svSzxrW-38" value="i=0" style="rounded=0;whiteSpace=wrap;html=1;" vertex="1" parent="1">
          <mxGeometry x="640" y="1080" width="120" height="60" as="geometry" />
        </mxCell>
        <mxCell id="dF6EAg90yfkV_svSzxrW-39" value="arr[i]&lt;br&gt;i++" style="shape=parallelogram;perimeter=parallelogramPerimeter;whiteSpace=wrap;html=1;fixedSize=1;" vertex="1" parent="1">
          <mxGeometry x="950" y="1080" width="120" height="60" as="geometry" />
        </mxCell>
        <mxCell id="dF6EAg90yfkV_svSzxrW-40" value="" style="edgeStyle=orthogonalEdgeStyle;rounded=0;orthogonalLoop=1;jettySize=auto;html=1;" edge="1" parent="1" source="dF6EAg90yfkV_svSzxrW-44" target="dF6EAg90yfkV_svSzxrW-39">
          <mxGeometry relative="1" as="geometry" />
        </mxCell>
        <mxCell id="dF6EAg90yfkV_svSzxrW-41" value="true" style="edgeLabel;html=1;align=center;verticalAlign=middle;resizable=0;points=[];" vertex="1" connectable="0" parent="dF6EAg90yfkV_svSzxrW-40">
          <mxGeometry x="-0.0571" y="-1" relative="1" as="geometry">
            <mxPoint y="1" as="offset" />
          </mxGeometry>
        </mxCell>
        <mxCell id="dF6EAg90yfkV_svSzxrW-42" style="edgeStyle=orthogonalEdgeStyle;rounded=0;orthogonalLoop=1;jettySize=auto;html=1;" edge="1" parent="1" source="dF6EAg90yfkV_svSzxrW-44">
          <mxGeometry relative="1" as="geometry">
            <mxPoint x="1940" y="1250" as="targetPoint" />
            <Array as="points">
              <mxPoint x="867" y="1220" />
              <mxPoint x="1681" y="1220" />
            </Array>
          </mxGeometry>
        </mxCell>
        <mxCell id="dF6EAg90yfkV_svSzxrW-43" value="false" style="edgeLabel;html=1;align=center;verticalAlign=middle;resizable=0;points=[];" vertex="1" connectable="0" parent="dF6EAg90yfkV_svSzxrW-42">
          <mxGeometry x="-0.7196" y="5" relative="1" as="geometry">
            <mxPoint x="1" as="offset" />
          </mxGeometry>
        </mxCell>
        <mxCell id="dF6EAg90yfkV_svSzxrW-44" value="i&amp;lt;n" style="rhombus;whiteSpace=wrap;html=1;" vertex="1" parent="1">
          <mxGeometry x="827" y="1070" width="80" height="80" as="geometry" />
        </mxCell>
        <mxCell id="dF6EAg90yfkV_svSzxrW-45" value="" style="endArrow=classic;html=1;rounded=0;exitX=0.5;exitY=0;exitDx=0;exitDy=0;" edge="1" parent="1">
          <mxGeometry width="50" height="50" relative="1" as="geometry">
            <mxPoint x="1010" y="1080" as="sourcePoint" />
            <mxPoint x="790" y="1110" as="targetPoint" />
            <Array as="points">
              <mxPoint x="1010" y="1050" />
              <mxPoint x="790" y="1050" />
            </Array>
          </mxGeometry>
        </mxCell>
        <mxCell id="dF6EAg90yfkV_svSzxrW-46" value="" style="edgeStyle=orthogonalEdgeStyle;rounded=0;orthogonalLoop=1;jettySize=auto;html=1;" edge="1" parent="1" source="dF6EAg90yfkV_svSzxrW-47" target="dF6EAg90yfkV_svSzxrW-50">
          <mxGeometry relative="1" as="geometry" />
        </mxCell>
        <mxCell id="dF6EAg90yfkV_svSzxrW-47" value="i=0" style="rounded=0;whiteSpace=wrap;html=1;" vertex="1" parent="1">
          <mxGeometry x="670" y="1390" width="120" height="60" as="geometry" />
        </mxCell>
        <mxCell id="dF6EAg90yfkV_svSzxrW-48" value="" style="edgeStyle=orthogonalEdgeStyle;rounded=0;orthogonalLoop=1;jettySize=auto;html=1;" edge="1" parent="1" source="dF6EAg90yfkV_svSzxrW-50" target="dF6EAg90yfkV_svSzxrW-54">
          <mxGeometry relative="1" as="geometry" />
        </mxCell>
        <mxCell id="dF6EAg90yfkV_svSzxrW-49" value="true" style="edgeLabel;html=1;align=center;verticalAlign=middle;resizable=0;points=[];" vertex="1" connectable="0" parent="dF6EAg90yfkV_svSzxrW-48">
          <mxGeometry x="-0.3111" y="2" relative="1" as="geometry">
            <mxPoint y="1" as="offset" />
          </mxGeometry>
        </mxCell>
        <mxCell id="dF6EAg90yfkV_svSzxrW-50" value="i&amp;lt;size" style="rhombus;whiteSpace=wrap;html=1;" vertex="1" parent="1">
          <mxGeometry x="870" y="1380" width="80" height="80" as="geometry" />
        </mxCell>
        <mxCell id="dF6EAg90yfkV_svSzxrW-51" value="" style="edgeStyle=orthogonalEdgeStyle;rounded=0;orthogonalLoop=1;jettySize=auto;html=1;" edge="1" parent="1" source="dF6EAg90yfkV_svSzxrW-54" target="dF6EAg90yfkV_svSzxrW-56">
          <mxGeometry relative="1" as="geometry" />
        </mxCell>
        <mxCell id="dF6EAg90yfkV_svSzxrW-52" value="true" style="edgeLabel;html=1;align=center;verticalAlign=middle;resizable=0;points=[];" vertex="1" connectable="0" parent="dF6EAg90yfkV_svSzxrW-51">
          <mxGeometry x="-0.167" relative="1" as="geometry">
            <mxPoint y="1" as="offset" />
          </mxGeometry>
        </mxCell>
        <mxCell id="dF6EAg90yfkV_svSzxrW-53" style="edgeStyle=orthogonalEdgeStyle;rounded=0;orthogonalLoop=1;jettySize=auto;html=1;" edge="1" parent="1" source="dF6EAg90yfkV_svSzxrW-54">
          <mxGeometry relative="1" as="geometry">
            <mxPoint x="820" y="1420" as="targetPoint" />
            <Array as="points">
              <mxPoint x="1080" y="1300" />
              <mxPoint x="820" y="1300" />
            </Array>
          </mxGeometry>
        </mxCell>
        <mxCell id="dF6EAg90yfkV_svSzxrW-54" value="arr[i]==find" style="rhombus;whiteSpace=wrap;html=1;" vertex="1" parent="1">
          <mxGeometry x="1040" y="1380" width="80" height="80" as="geometry" />
        </mxCell>
        <mxCell id="dF6EAg90yfkV_svSzxrW-55" style="edgeStyle=orthogonalEdgeStyle;rounded=0;orthogonalLoop=1;jettySize=auto;html=1;" edge="1" parent="1" source="dF6EAg90yfkV_svSzxrW-56">
          <mxGeometry relative="1" as="geometry">
            <mxPoint x="1950" y="1420" as="targetPoint" />
          </mxGeometry>
        </mxCell>
        <mxCell id="dF6EAg90yfkV_svSzxrW-56" value="arr[i]" style="shape=parallelogram;perimeter=parallelogramPerimeter;whiteSpace=wrap;html=1;fixedSize=1;" vertex="1" parent="1">
          <mxGeometry x="1200" y="1390" width="110" height="60" as="geometry" />
        </mxCell>
        <mxCell id="dF6EAg90yfkV_svSzxrW-57" value="" style="edgeStyle=orthogonalEdgeStyle;rounded=0;orthogonalLoop=1;jettySize=auto;html=1;" edge="1" parent="1" source="dF6EAg90yfkV_svSzxrW-61" target="dF6EAg90yfkV_svSzxrW-63">
          <mxGeometry relative="1" as="geometry" />
        </mxCell>
        <mxCell id="dF6EAg90yfkV_svSzxrW-58" value="true" style="edgeLabel;html=1;align=center;verticalAlign=middle;resizable=0;points=[];" vertex="1" connectable="0" parent="dF6EAg90yfkV_svSzxrW-57">
          <mxGeometry x="-0.0909" relative="1" as="geometry">
            <mxPoint y="-1" as="offset" />
          </mxGeometry>
        </mxCell>
        <mxCell id="dF6EAg90yfkV_svSzxrW-59" value="" style="edgeStyle=orthogonalEdgeStyle;rounded=0;orthogonalLoop=1;jettySize=auto;html=1;" edge="1" parent="1" source="dF6EAg90yfkV_svSzxrW-61" target="dF6EAg90yfkV_svSzxrW-88">
          <mxGeometry relative="1" as="geometry" />
        </mxCell>
        <mxCell id="dF6EAg90yfkV_svSzxrW-60" value="false" style="edgeLabel;html=1;align=center;verticalAlign=middle;resizable=0;points=[];" vertex="1" connectable="0" parent="dF6EAg90yfkV_svSzxrW-59">
          <mxGeometry x="-0.0071" y="-2" relative="1" as="geometry">
            <mxPoint x="-1" y="-1" as="offset" />
          </mxGeometry>
        </mxCell>
        <mxCell id="dF6EAg90yfkV_svSzxrW-61" value="case==3" style="rhombus;whiteSpace=wrap;html=1;" vertex="1" parent="1">
          <mxGeometry x="480" y="1660" width="80" height="80" as="geometry" />
        </mxCell>
        <mxCell id="dF6EAg90yfkV_svSzxrW-62" style="edgeStyle=orthogonalEdgeStyle;rounded=0;orthogonalLoop=1;jettySize=auto;html=1;" edge="1" parent="1" source="dF6EAg90yfkV_svSzxrW-63" target="dF6EAg90yfkV_svSzxrW-65">
          <mxGeometry relative="1" as="geometry">
            <mxPoint x="940" y="1700" as="targetPoint" />
          </mxGeometry>
        </mxCell>
        <mxCell id="dF6EAg90yfkV_svSzxrW-63" value="end=n&lt;br&gt;start=0" style="rounded=0;whiteSpace=wrap;html=1;" vertex="1" parent="1">
          <mxGeometry x="670" y="1670" width="120" height="60" as="geometry" />
        </mxCell>
        <mxCell id="dF6EAg90yfkV_svSzxrW-64" value="" style="edgeStyle=orthogonalEdgeStyle;rounded=0;orthogonalLoop=1;jettySize=auto;html=1;" edge="1" parent="1" source="dF6EAg90yfkV_svSzxrW-65" target="dF6EAg90yfkV_svSzxrW-67">
          <mxGeometry relative="1" as="geometry" />
        </mxCell>
        <mxCell id="dF6EAg90yfkV_svSzxrW-65" value="start&amp;lt;=end" style="rhombus;whiteSpace=wrap;html=1;" vertex="1" parent="1">
          <mxGeometry x="890" y="1660" width="80" height="80" as="geometry" />
        </mxCell>
        <mxCell id="dF6EAg90yfkV_svSzxrW-66" value="" style="edgeStyle=orthogonalEdgeStyle;rounded=0;orthogonalLoop=1;jettySize=auto;html=1;" edge="1" parent="1" source="dF6EAg90yfkV_svSzxrW-67" target="dF6EAg90yfkV_svSzxrW-72">
          <mxGeometry relative="1" as="geometry" />
        </mxCell>
        <mxCell id="dF6EAg90yfkV_svSzxrW-67" value="mid=(start+end)/2" style="rounded=0;whiteSpace=wrap;html=1;" vertex="1" parent="1">
          <mxGeometry x="1030" y="1670" width="120" height="60" as="geometry" />
        </mxCell>
        <mxCell id="dF6EAg90yfkV_svSzxrW-68" value="" style="edgeStyle=orthogonalEdgeStyle;rounded=0;orthogonalLoop=1;jettySize=auto;html=1;" edge="1" parent="1" source="dF6EAg90yfkV_svSzxrW-72" target="dF6EAg90yfkV_svSzxrW-77">
          <mxGeometry relative="1" as="geometry" />
        </mxCell>
        <mxCell id="dF6EAg90yfkV_svSzxrW-69" value="false" style="edgeLabel;html=1;align=center;verticalAlign=middle;resizable=0;points=[];" vertex="1" connectable="0" parent="dF6EAg90yfkV_svSzxrW-68">
          <mxGeometry x="-0.2778" y="1" relative="1" as="geometry">
            <mxPoint x="1" as="offset" />
          </mxGeometry>
        </mxCell>
        <mxCell id="dF6EAg90yfkV_svSzxrW-70" style="edgeStyle=orthogonalEdgeStyle;rounded=0;orthogonalLoop=1;jettySize=auto;html=1;entryX=0;entryY=0.25;entryDx=0;entryDy=0;" edge="1" parent="1">
          <mxGeometry relative="1" as="geometry">
            <mxPoint x="1290" y="1740" as="sourcePoint" />
            <mxPoint x="1583.8461538461538" y="1798.4615384615386" as="targetPoint" />
            <Array as="points">
              <mxPoint x="1290" y="1799" />
            </Array>
          </mxGeometry>
        </mxCell>
        <mxCell id="dF6EAg90yfkV_svSzxrW-71" value="true" style="edgeLabel;html=1;align=center;verticalAlign=middle;resizable=0;points=[];" vertex="1" connectable="0" parent="dF6EAg90yfkV_svSzxrW-70">
          <mxGeometry x="-0.1259" y="-4" relative="1" as="geometry">
            <mxPoint as="offset" />
          </mxGeometry>
        </mxCell>
        <mxCell id="dF6EAg90yfkV_svSzxrW-72" value="arr[i]==find" style="rhombus;whiteSpace=wrap;html=1;rounded=0;" vertex="1" parent="1">
          <mxGeometry x="1250" y="1660" width="80" height="80" as="geometry" />
        </mxCell>
        <mxCell id="dF6EAg90yfkV_svSzxrW-73" value="false" style="text;html=1;align=center;verticalAlign=middle;resizable=0;points=[];autosize=1;strokeColor=none;fillColor=none;" vertex="1" parent="1">
          <mxGeometry x="925" y="1278" width="50" height="30" as="geometry" />
        </mxCell>
        <mxCell id="dF6EAg90yfkV_svSzxrW-74" value="" style="edgeStyle=orthogonalEdgeStyle;rounded=0;orthogonalLoop=1;jettySize=auto;html=1;" edge="1" parent="1" source="dF6EAg90yfkV_svSzxrW-77" target="dF6EAg90yfkV_svSzxrW-79">
          <mxGeometry relative="1" as="geometry" />
        </mxCell>
        <mxCell id="dF6EAg90yfkV_svSzxrW-75" value="true" style="edgeLabel;html=1;align=center;verticalAlign=middle;resizable=0;points=[];" vertex="1" connectable="0" parent="dF6EAg90yfkV_svSzxrW-74">
          <mxGeometry x="0.025" relative="1" as="geometry">
            <mxPoint x="1" y="1" as="offset" />
          </mxGeometry>
        </mxCell>
        <mxCell id="dF6EAg90yfkV_svSzxrW-76" value="false" style="edgeStyle=orthogonalEdgeStyle;rounded=0;orthogonalLoop=1;jettySize=auto;html=1;" edge="1" parent="1" source="dF6EAg90yfkV_svSzxrW-77" target="dF6EAg90yfkV_svSzxrW-81">
          <mxGeometry relative="1" as="geometry" />
        </mxCell>
        <mxCell id="dF6EAg90yfkV_svSzxrW-77" value="arr[mid]&amp;lt;find" style="rhombus;whiteSpace=wrap;html=1;" vertex="1" parent="1">
          <mxGeometry x="1420" y="1660" width="80" height="80" as="geometry" />
        </mxCell>
        <mxCell id="dF6EAg90yfkV_svSzxrW-78" style="edgeStyle=orthogonalEdgeStyle;rounded=0;orthogonalLoop=1;jettySize=auto;html=1;" edge="1" parent="1" source="dF6EAg90yfkV_svSzxrW-79">
          <mxGeometry relative="1" as="geometry">
            <mxPoint x="860" y="1700" as="targetPoint" />
          </mxGeometry>
        </mxCell>
        <mxCell id="dF6EAg90yfkV_svSzxrW-79" value="start=mid+1" style="rounded=0;whiteSpace=wrap;html=1;" vertex="1" parent="1">
          <mxGeometry x="1400" y="1560" width="120" height="60" as="geometry" />
        </mxCell>
        <mxCell id="dF6EAg90yfkV_svSzxrW-80" style="edgeStyle=orthogonalEdgeStyle;rounded=0;orthogonalLoop=1;jettySize=auto;html=1;" edge="1" parent="1" source="dF6EAg90yfkV_svSzxrW-81">
          <mxGeometry relative="1" as="geometry">
            <mxPoint x="840" y="1700" as="targetPoint" />
            <Array as="points">
              <mxPoint x="1630" y="1490" />
              <mxPoint x="840" y="1490" />
            </Array>
          </mxGeometry>
        </mxCell>
        <mxCell id="dF6EAg90yfkV_svSzxrW-81" value="end=mid-1" style="rounded=0;whiteSpace=wrap;html=1;" vertex="1" parent="1">
          <mxGeometry x="1570" y="1670" width="120" height="60" as="geometry" />
        </mxCell>
        <mxCell id="dF6EAg90yfkV_svSzxrW-82" style="edgeStyle=orthogonalEdgeStyle;rounded=0;orthogonalLoop=1;jettySize=auto;html=1;exitX=1;exitY=0.5;exitDx=0;exitDy=0;" edge="1" parent="1" source="dF6EAg90yfkV_svSzxrW-83">
          <mxGeometry relative="1" as="geometry">
            <mxPoint x="360" y="1020" as="targetPoint" />
            <Array as="points">
              <mxPoint x="1940" y="1810" />
              <mxPoint x="1940" y="1010" />
              <mxPoint x="361" y="1010" />
            </Array>
          </mxGeometry>
        </mxCell>
        <mxCell id="dF6EAg90yfkV_svSzxrW-83" value="arr[mid]" style="shape=parallelogram;perimeter=parallelogramPerimeter;whiteSpace=wrap;html=1;fixedSize=1;" vertex="1" parent="1">
          <mxGeometry x="1570" y="1780" width="120" height="60" as="geometry" />
        </mxCell>
        <mxCell id="dF6EAg90yfkV_svSzxrW-84" style="edgeStyle=orthogonalEdgeStyle;rounded=0;orthogonalLoop=1;jettySize=auto;html=1;entryX=0;entryY=0.5;entryDx=0;entryDy=0;" edge="1" parent="1" source="dF6EAg90yfkV_svSzxrW-88" target="dF6EAg90yfkV_svSzxrW-90">
          <mxGeometry relative="1" as="geometry" />
        </mxCell>
        <mxCell id="dF6EAg90yfkV_svSzxrW-85" value="true" style="edgeLabel;html=1;align=center;verticalAlign=middle;resizable=0;points=[];" vertex="1" connectable="0" parent="dF6EAg90yfkV_svSzxrW-84">
          <mxGeometry x="-0.2105" y="8" relative="1" as="geometry">
            <mxPoint as="offset" />
          </mxGeometry>
        </mxCell>
        <mxCell id="dF6EAg90yfkV_svSzxrW-86" value="" style="edgeStyle=orthogonalEdgeStyle;rounded=0;orthogonalLoop=1;jettySize=auto;html=1;" edge="1" parent="1" source="dF6EAg90yfkV_svSzxrW-88">
          <mxGeometry relative="1" as="geometry">
            <mxPoint x="520" y="2040" as="targetPoint" />
          </mxGeometry>
        </mxCell>
        <mxCell id="dF6EAg90yfkV_svSzxrW-87" value="false" style="edgeLabel;html=1;align=center;verticalAlign=middle;resizable=0;points=[];" vertex="1" connectable="0" parent="dF6EAg90yfkV_svSzxrW-86">
          <mxGeometry x="-0.075" relative="1" as="geometry">
            <mxPoint y="-1" as="offset" />
          </mxGeometry>
        </mxCell>
        <mxCell id="dF6EAg90yfkV_svSzxrW-88" value="case== 4" style="rhombus;whiteSpace=wrap;html=1;" vertex="1" parent="1">
          <mxGeometry x="480" y="1880" width="80" height="80" as="geometry" />
        </mxCell>
        <mxCell id="dF6EAg90yfkV_svSzxrW-89" style="edgeStyle=orthogonalEdgeStyle;rounded=0;orthogonalLoop=1;jettySize=auto;html=1;" edge="1" parent="1" source="dF6EAg90yfkV_svSzxrW-90" target="dF6EAg90yfkV_svSzxrW-91">
          <mxGeometry relative="1" as="geometry" />
        </mxCell>
        <mxCell id="dF6EAg90yfkV_svSzxrW-90" value="end" style="shape=parallelogram;perimeter=parallelogramPerimeter;whiteSpace=wrap;html=1;fixedSize=1;" vertex="1" parent="1">
          <mxGeometry x="740" y="1890" width="120" height="60" as="geometry" />
        </mxCell>
        <mxCell id="dF6EAg90yfkV_svSzxrW-91" value="end" style="ellipse;whiteSpace=wrap;html=1;" vertex="1" parent="1">
          <mxGeometry x="1130" y="1880" width="120" height="80" as="geometry" />
        </mxCell>
        <mxCell id="dF6EAg90yfkV_svSzxrW-92" style="edgeStyle=orthogonalEdgeStyle;rounded=0;orthogonalLoop=1;jettySize=auto;html=1;" edge="1" parent="1">
          <mxGeometry relative="1" as="geometry">
            <mxPoint x="1950" y="1810" as="targetPoint" />
            <mxPoint x="570" y="2075" as="sourcePoint" />
            <Array as="points">
              <mxPoint x="1620" y="2075" />
              <mxPoint x="1620" y="2080" />
              <mxPoint x="1940" y="2080" />
              <mxPoint x="1940" y="1810" />
            </Array>
          </mxGeometry>
        </mxCell>
        <mxCell id="dF6EAg90yfkV_svSzxrW-93" value="vui long nhap 1-4" style="shape=parallelogram;perimeter=parallelogramPerimeter;whiteSpace=wrap;html=1;fixedSize=1;" vertex="1" parent="1">
          <mxGeometry x="470" y="2040" width="120" height="60" as="geometry" />
        </mxCell>
      </root>
    </mxGraphModel>
  </diagram>
</mxfile>
